<svg width="44" height="44" viewBox="0 0 44 44" fill="none" xmlns="http://www.w3.org/2000/svg">
<rect width="44" height="44" rx="10" fill="#003B32"/>
<path d="M14.3027 27.4971C14.0592 27.4971 13.8551 27.429 13.6904 27.293C13.5257 27.1569 13.4147 26.9743 13.3574 26.7451L12.9277 25.0156C12.7917 24.9583 12.6556 24.9046 12.5195 24.8545C12.3906 24.8044 12.2689 24.7471 12.1543 24.6826L10.6289 25.6172C10.4355 25.7389 10.2279 25.7891 10.0059 25.7676C9.78385 25.7461 9.59049 25.653 9.42578 25.4883L8.39453 24.4463C8.23698 24.2816 8.14388 24.0882 8.11523 23.8662C8.09375 23.637 8.14388 23.4222 8.26562 23.2217L9.2002 21.7285C9.1429 21.6068 9.08561 21.4814 9.02832 21.3525C8.97103 21.2236 8.92448 21.0947 8.88867 20.9658L7.14844 20.5469C6.91211 20.4896 6.72591 20.3786 6.58984 20.2139C6.46094 20.0492 6.39648 19.8451 6.39648 19.6016V18.1621C6.39648 17.6536 6.64714 17.3385 7.14844 17.2168L8.86719 16.7871C8.91732 16.651 8.96745 16.5186 9.01758 16.3896C9.07487 16.2607 9.12858 16.139 9.17871 16.0244L8.26562 14.499C8.14388 14.2842 8.08659 14.0729 8.09375 13.8652C8.10807 13.6504 8.20117 13.457 8.37305 13.2852L9.42578 12.2646C9.59766 12.0999 9.78743 12.0033 9.99512 11.9746C10.21 11.946 10.4141 11.9889 10.6074 12.1035L12.1436 13.0596C12.2653 12.988 12.3906 12.9271 12.5195 12.877C12.6556 12.8197 12.7917 12.766 12.9277 12.7158L13.3574 10.9756C13.4147 10.7464 13.5257 10.5638 13.6904 10.4277C13.8551 10.2917 14.0592 10.2236 14.3027 10.2236H15.7637C16.0072 10.2236 16.2113 10.2917 16.376 10.4277C16.5479 10.5638 16.6589 10.7464 16.709 10.9756L17.1387 12.7373C17.2819 12.7874 17.418 12.8376 17.5469 12.8877C17.6758 12.9378 17.7975 12.9987 17.9121 13.0703L19.459 12.1143C19.6523 11.9925 19.8529 11.946 20.0605 11.9746C20.2754 12.0033 20.4688 12.0999 20.6406 12.2646L21.6934 13.2852C21.8652 13.457 21.9548 13.6504 21.9619 13.8652C21.9762 14.0729 21.9225 14.2842 21.8008 14.499L20.8877 16.0244C20.9378 16.139 20.988 16.2607 21.0381 16.3896C21.0954 16.5186 21.1491 16.651 21.1992 16.7871L22.9072 17.2168C23.4157 17.3385 23.6699 17.6536 23.6699 18.1621V19.6016C23.6699 19.8451 23.6019 20.0492 23.4658 20.2139C23.3369 20.3786 23.1507 20.4896 22.9072 20.5469L21.1777 20.9658C21.1419 21.0947 21.0954 21.2236 21.0381 21.3525C20.9808 21.4814 20.9235 21.6068 20.8662 21.7285L21.8008 23.2217C21.9225 23.4222 21.9691 23.637 21.9404 23.8662C21.9189 24.0882 21.8294 24.2816 21.6719 24.4463L20.6406 25.4883C20.4759 25.653 20.2826 25.7461 20.0605 25.7676C19.8385 25.7891 19.6309 25.7389 19.4375 25.6172L17.9121 24.6826C17.7975 24.7471 17.6722 24.8044 17.5361 24.8545C17.4072 24.9046 17.2747 24.9583 17.1387 25.0156L16.709 26.7451C16.6517 26.9743 16.5407 27.1569 16.376 27.293C16.2113 27.429 16.0072 27.4971 15.7637 27.4971H14.3027ZM15.0332 21.417C15.4987 21.417 15.9248 21.3024 16.3115 21.0732C16.6982 20.8369 17.0062 20.5254 17.2354 20.1387C17.4717 19.7448 17.5898 19.3115 17.5898 18.8389C17.5898 18.3805 17.4717 17.9616 17.2354 17.582C17.0062 17.1953 16.6982 16.8874 16.3115 16.6582C15.9248 16.4219 15.4987 16.3037 15.0332 16.3037C14.5677 16.3037 14.1416 16.4219 13.7549 16.6582C13.3682 16.8874 13.0566 17.1953 12.8203 17.582C12.5911 17.9616 12.4766 18.3805 12.4766 18.8389C12.4766 19.3115 12.5911 19.7448 12.8203 20.1387C13.0566 20.5254 13.3682 20.8369 13.7549 21.0732C14.1416 21.3024 14.5677 21.417 15.0332 21.417ZM28.5469 34.2646C28.332 34.2646 28.1494 34.2038 27.999 34.082C27.8558 33.9674 27.7555 33.8099 27.6982 33.6094L27.3438 32.1162C27.2292 32.0732 27.1146 32.0267 27 31.9766C26.8926 31.9336 26.7852 31.887 26.6777 31.8369L25.3779 32.6426C25.2061 32.75 25.0234 32.793 24.8301 32.7715C24.6367 32.7572 24.4648 32.6748 24.3145 32.5244L23.4443 31.6543C23.3011 31.5039 23.2152 31.3285 23.1865 31.1279C23.165 30.9274 23.2152 30.7412 23.3369 30.5693L24.1426 29.2803C24.0853 29.18 24.0352 29.0762 23.9922 28.9688C23.9492 28.8613 23.9098 28.7539 23.874 28.6465L22.3701 28.2812C22.1696 28.2383 22.0085 28.1416 21.8867 27.9912C21.7721 27.8408 21.7148 27.6582 21.7148 27.4434V26.2295C21.7148 26.0146 21.7721 25.832 21.8867 25.6816C22.0085 25.5312 22.1696 25.4346 22.3701 25.3916L23.8525 25.0264C23.8955 24.8975 23.9385 24.7793 23.9814 24.6719C24.0244 24.5645 24.0674 24.4678 24.1104 24.3818L23.3369 23.0605C23.2223 22.8743 23.1722 22.6882 23.1865 22.502C23.2008 22.3158 23.2868 22.1475 23.4443 21.9971L24.3145 21.127C24.4648 20.9837 24.6331 20.9014 24.8193 20.8799C25.0127 20.8584 25.1917 20.8942 25.3564 20.9873L26.667 21.8037C26.7744 21.7464 26.8854 21.6963 27 21.6533C27.1146 21.6104 27.2292 21.5674 27.3438 21.5244L27.6982 20.0205C27.7555 19.82 27.8558 19.6589 27.999 19.5371C28.1494 19.4154 28.332 19.3545 28.5469 19.3545H29.7822C29.9971 19.3545 30.1797 19.4154 30.3301 19.5371C30.4805 19.6589 30.5807 19.82 30.6309 20.0205L30.9746 21.5459C31.0964 21.5817 31.2145 21.6247 31.3291 21.6748C31.4437 21.7249 31.5475 21.7715 31.6406 21.8145L32.9619 20.998C33.1338 20.8906 33.3128 20.8512 33.499 20.8799C33.6852 20.9014 33.8535 20.9837 34.0039 21.127L34.8955 21.9971C35.0459 22.1475 35.1283 22.3158 35.1426 22.502C35.1569 22.6882 35.1068 22.8743 34.9922 23.0605L34.208 24.3711C34.2939 24.543 34.3799 24.7614 34.4658 25.0264L35.959 25.3916C36.3887 25.4919 36.6035 25.7712 36.6035 26.2295V27.4434C36.6035 27.9017 36.3887 28.181 35.959 28.2812L34.4551 28.6465C34.4193 28.7539 34.3799 28.8613 34.3369 28.9688C34.2939 29.0762 34.2474 29.18 34.1973 29.2803L34.9922 30.5693C35.1068 30.7484 35.1497 30.9346 35.1211 31.1279C35.0996 31.3285 35.0173 31.5039 34.874 31.6543L34.0039 32.5244C33.8535 32.6748 33.6816 32.7572 33.4883 32.7715C33.3021 32.793 33.123 32.75 32.9512 32.6426L31.6514 31.8262C31.5439 31.8835 31.4329 31.9336 31.3184 31.9766C31.2109 32.0267 31.0964 32.0732 30.9746 32.1162L30.6309 33.6094C30.5807 33.8099 30.4805 33.9674 30.3301 34.082C30.1797 34.2038 29.9971 34.2646 29.7822 34.2646H28.5469ZM29.1592 28.8398C29.7249 28.8398 30.2048 28.6429 30.5986 28.249C30.9925 27.848 31.1895 27.3646 31.1895 26.7988C31.1895 26.2474 30.9925 25.7747 30.5986 25.3809C30.2048 24.9798 29.7249 24.7793 29.1592 24.7793C28.6077 24.7793 28.1315 24.9798 27.7305 25.3809C27.3366 25.7747 27.1396 26.2474 27.1396 26.7988C27.1396 27.3646 27.3366 27.848 27.7305 28.249C28.1315 28.6429 28.6077 28.8398 29.1592 28.8398Z" fill="white"/>
</svg>
