<svg width="354" height="427" viewBox="0 0 354 427" fill="none" xmlns="http://www.w3.org/2000/svg">
<g clip-path="url(#clip0_20_2762)">
<path d="M354 21.7783C353.886 39.322 353.722 56.8657 353.509 74.4094C353.101 109.579 352.643 144.748 351.367 179.9C351.367 180.342 351.318 180.832 351.007 181.143C350.762 181.388 350.402 181.454 350.075 181.601C348.865 182.173 348.506 183.775 348.849 185.067C349.192 186.359 350.026 187.438 350.648 188.615C352.201 191.493 352.021 194.141 351.678 197.248C351.285 200.73 351.4 204.328 351.318 207.859C351.171 215.331 351.007 222.787 350.844 230.259C350.517 245.186 350.173 260.13 349.83 275.058C349.405 292.88 348.963 310.718 348.506 328.539C348.277 337.597 348.031 346.639 347.786 355.697C347.622 361.845 348.898 369.922 346.085 375.579C345.726 376.298 344.99 376.87 344.188 376.789C345.219 378.358 346.363 379.912 346.87 381.759C347.933 385.634 346.821 390.654 346.707 394.643C346.576 399.466 346.429 404.306 346.298 409.129C346.249 411.14 345.611 413.119 344.385 414.688C341.441 418.465 337.271 421.98 332.251 425.332C330.567 426.46 328.572 427.049 326.544 427.016C320.87 426.902 315.212 426.771 309.537 426.673C300.478 426.493 291.402 426.313 282.343 426.166C276.358 426.068 267.135 427.343 263.407 420.967C263.096 422.16 262.785 423.37 262.475 424.564C262.377 424.94 262.262 425.349 261.968 425.594C261.641 425.872 261.183 425.888 260.758 425.888C240.562 425.888 220.203 425.267 199.943 425.136C181.677 425.022 163.427 424.989 145.162 425.087C136.021 425.136 126.896 425.201 117.755 425.3C113.192 425.349 108.614 425.414 104.051 425.479C101.206 425.528 96.0876 425.627 93.5856 424.188C92.9642 423.828 92.441 423.321 91.7705 423.06C90.3969 422.553 88.9088 423.288 87.7151 424.139C84.9842 426.068 83.1691 425.839 79.9313 425.921C62.4504 426.297 44.9695 426.673 27.4723 427.033C25.4446 427.082 23.4496 426.477 21.7652 425.365C16.7287 422.03 12.5751 418.498 9.6153 414.721C8.37251 413.135 7.75111 411.157 7.6857 409.146C6.98254 384.392 6.29573 359.637 5.65798 334.867C5.54351 330.779 5.18376 326.708 4.97118 322.621C4.824 319.645 5.31458 316.538 8.56874 315.41C8.22533 314.021 5.95233 314.429 4.97118 313.367C4.52966 312.892 4.43154 312.189 4.36613 311.535C4.1699 309.671 3.97367 307.824 3.77744 305.96C3.56486 304.031 3.43404 301.84 4.72589 300.385C6.39385 298.488 7.09701 297.458 5.91962 294.875C5.16741 293.24 3.66297 292.487 3.79379 290.476C4.12084 285.408 4.28437 280.568 4.1699 275.5C3.97367 267.014 3.79379 258.545 3.58121 250.059C3.27051 236.325 2.97616 222.574 2.69817 208.84C2.42018 195.466 1.45538 182.402 3.56486 169.126C3.79379 167.703 4.03908 166.199 3.61391 164.826C3.41768 164.221 3.10698 163.665 2.8944 163.076C2.5837 162.242 2.43653 161.359 2.30571 160.476C0.654102 149.195 1.37361 137.668 1.21009 126.239C1.03021 114.14 0.850333 102.057 0.686807 89.9584C0.376109 67.199 0.147173 44.4887 0 21.7783C0 19.5874 0.719512 17.4455 2.06042 15.7124C5.7561 10.9055 9.81153 6.62175 14.4066 3.20458C16.1073 1.94562 18.1677 1.25891 20.2935 1.25891H333.723C335.849 1.25891 337.909 1.92927 339.61 3.20458C344.205 6.62175 348.26 10.9055 351.956 15.7124C353.297 17.4619 354.033 19.5874 354.016 21.7947L354 21.7783Z" fill="#2E82A6"/>
<path d="M354 20.5194C353.886 38.0631 353.722 55.6068 353.509 73.1505C353.101 108.32 352.643 143.489 351.367 178.642C351.367 179.083 351.318 179.573 351.007 179.884C350.762 180.129 350.402 180.195 350.075 180.342C348.865 180.914 348.506 182.516 348.849 183.808C349.192 185.1 350.026 186.179 350.648 187.356C352.201 190.234 352.021 192.882 351.678 195.989C351.285 199.472 351.4 203.069 351.318 206.6C351.171 214.072 351.007 221.528 350.844 229C350.517 243.928 350.173 258.872 349.83 273.799C349.405 291.621 348.963 309.459 348.506 327.281C348.277 336.339 348.031 345.38 347.786 354.438C347.622 360.586 348.898 368.663 346.085 374.32C345.726 375.039 344.99 375.612 344.188 375.53C345.219 377.099 346.363 378.653 346.87 380.5C347.933 384.375 346.821 389.395 346.707 393.384C346.576 398.207 346.429 403.047 346.298 407.87C346.249 409.881 345.611 411.86 344.385 413.429C341.441 417.206 337.271 420.722 332.251 424.073C330.567 425.201 328.572 425.79 326.544 425.757C320.87 425.643 315.212 425.528 309.537 425.414C300.478 425.234 291.402 425.054 282.343 424.907C276.358 424.809 267.135 426.084 263.407 419.708C263.096 420.901 262.785 422.111 262.475 423.305C262.377 423.681 262.262 424.09 261.968 424.335C261.641 424.613 261.183 424.629 260.758 424.629C240.562 424.629 220.203 424.008 199.943 423.877C181.677 423.763 163.427 423.73 145.162 423.828C136.021 423.877 126.896 423.943 117.755 424.041C113.192 424.09 108.614 424.155 104.051 424.22C101.206 424.27 96.0876 424.368 93.5856 422.929C92.9642 422.569 92.441 422.062 91.7705 421.801C90.3969 421.294 88.9088 422.03 87.7151 422.88C84.9842 424.809 83.1691 424.58 79.9313 424.662C62.4504 425.038 44.9695 425.414 27.4723 425.774C25.4446 425.823 23.4496 425.218 21.7652 424.09C16.7287 420.754 12.5751 417.223 9.6153 413.446C8.37251 411.86 7.75111 409.881 7.6857 407.87C6.98254 383.116 6.29573 358.362 5.65798 333.592C5.54351 329.504 5.18376 325.433 4.97118 321.345C4.824 318.37 5.31458 315.263 8.56874 314.135C8.22533 312.745 5.95233 313.154 4.97118 312.091C4.52966 311.617 4.43154 310.914 4.36613 310.26C4.1699 308.396 3.97367 306.549 3.77744 304.685C3.56486 302.755 3.43404 300.564 4.72589 299.109C6.39385 297.213 7.09701 296.183 5.91962 293.599C5.16741 291.964 3.66297 291.212 3.79379 289.201C4.12084 284.133 4.28437 279.293 4.1699 274.224C3.97367 265.739 3.79379 257.269 3.58121 248.784C3.27051 235.049 2.97616 221.299 2.69817 207.565C2.42018 194.19 1.45538 181.127 3.56486 167.85C3.79379 166.428 4.03908 164.924 3.61391 163.55C3.41768 162.945 3.10698 162.389 2.8944 161.801C2.5837 160.967 2.43653 160.084 2.30571 159.201C0.654102 147.92 1.37361 136.393 1.21009 124.964C1.03021 112.865 0.850333 100.782 0.686807 88.6831C0.376109 65.9564 0.147173 43.2297 0 20.5194C0 18.3285 0.719512 16.1866 2.06042 14.4535C5.7561 9.64658 9.79518 5.36284 14.4066 1.94567C16.1073 0.686706 18.1677 0 20.2935 0H333.723C335.849 0 337.909 0.670355 339.61 1.94567C344.205 5.36284 348.26 9.64658 351.956 14.4535C353.297 16.203 354.033 18.3285 354.016 20.5358L354 20.5194Z" fill="url(#paint0_linear_20_2762)"/>
<path d="M346.641 19.6528C346.641 21.6639 346.609 23.6913 346.592 25.7187C346.592 26.5362 346.592 27.3537 346.592 28.1713C346.527 36.9022 346.445 45.7803 346.363 54.8547C346.363 55.6558 346.363 56.457 346.331 57.2745C346.249 66.2017 346.134 75.2923 346.02 84.5465C346.02 85.2332 346.02 85.9036 345.987 86.5903C345.824 100.308 345.628 114.385 345.399 128.839C345.399 129.771 345.366 130.719 345.349 131.668C345.268 136.049 345.202 140.448 345.137 144.895C345.137 145.304 345.137 145.729 345.104 146.154C345.022 150.993 344.941 155.866 344.859 160.787C344.859 161.686 344.826 162.602 344.81 163.518C344.744 167.066 344.679 170.63 344.614 174.178C344.597 175.437 344.99 177.562 344.516 178.723C344.009 180.015 342.504 180.554 341.687 181.601C340.264 183.399 341 186.048 342.03 188.092C344.63 193.242 344.139 198.098 344.025 203.755C343.992 205.21 343.96 206.682 343.943 208.153C343.796 214.775 343.649 221.479 343.502 228.248C343.502 229.196 343.469 230.161 343.436 231.109C343.387 234.068 343.322 237.044 343.24 240.02C343.207 241.655 343.175 243.29 343.126 244.925C342.929 253.901 342.717 262.992 342.504 272.213C342.161 286.52 341.801 301.104 341.425 316.015C341.359 318.353 341.31 320.708 341.229 323.062C340.934 331.335 340.82 339.609 340.591 347.865C340.378 355.583 341.376 364.379 339.446 371.867C332.169 369.529 325.138 366.423 318.499 362.629C324.909 367.927 331.891 372.538 339.299 376.347C339.675 376.543 340.068 376.74 340.264 377.116C340.509 377.557 340.411 378.08 340.297 378.571C338.383 387.645 339.217 397.521 338.956 406.857C338.956 407.543 338.743 408.165 338.416 408.573C336.094 411.565 332.513 414.672 327.82 417.811C327.247 418.187 326.593 418.383 325.939 418.383H325.874C281.853 417.451 223.932 416.389 166.207 416.389C135.301 416.389 106.766 416.667 78.9665 417.272L26.5075 418.383C25.788 418.383 25.1339 418.187 24.5615 417.795C19.8684 414.688 16.2871 411.582 13.9487 408.573C13.6217 408.165 13.4254 407.527 13.4091 406.84C13.2292 400.3 13.033 393.809 12.8531 387.367C12.8041 385.356 12.755 383.345 12.6896 381.35C12.4443 372.341 12.199 363.447 11.9701 354.651C11.9537 353.98 11.9374 353.31 11.9047 352.64C11.5613 345.495 11.5286 338.317 11.3323 331.155C11.2342 327.608 11.4958 323.847 11.0543 320.315C10.76 317.912 9.40272 316.13 11.5286 314.021C12.5751 312.991 13.9651 312.386 15.3223 311.813C20.8004 309.508 26.2786 307.186 31.773 304.881C34.046 303.916 36.3354 302.952 38.7556 302.445C29.3528 304.783 20.0319 307.431 10.7927 310.407C10.1059 306.271 10.5801 301.872 10.482 297.67C10.3839 293.436 10.1713 289.185 10.1713 284.95C10.1713 284.525 10.1713 284.116 10.1386 283.691C10.0895 281.288 10.0405 278.884 9.97506 276.481C9.82789 270.349 9.68072 264.267 9.5499 258.25C9.5499 257.596 9.51719 256.942 9.50084 256.305C9.22284 244.271 8.9612 232.466 8.71591 220.858C8.71591 220.04 8.68321 219.239 8.66686 218.421C8.42157 206.976 8.19263 195.727 7.98005 184.691C7.9637 183.612 7.94735 182.533 7.93099 181.47C7.78382 174.014 7.63665 166.657 7.50583 159.381C7.50583 158.22 7.47312 157.059 7.45677 155.898C7.12972 137.406 6.83537 119.519 6.59008 102.205C6.59008 101.534 6.59008 100.864 6.59008 100.194C6.45926 91.2828 6.3448 82.5354 6.24668 73.9353C6.24668 72.9052 6.24668 71.8752 6.21397 70.8451C6.09951 61.0023 6.00139 51.3721 5.91963 41.9217C5.91963 41.3495 5.91963 40.7936 5.91963 40.2213C5.85422 33.2561 5.80516 26.4054 5.7561 19.6528C5.7561 18.9007 6.00139 18.1977 6.45926 17.6091C10.1222 12.8512 13.7361 9.1724 17.5299 6.36018C18.0859 5.93508 18.7891 5.70618 19.5086 5.70618H332.938C333.641 5.70618 334.344 5.93508 334.917 6.36018C338.71 9.1724 342.341 12.8512 345.987 17.6091C346.445 18.1977 346.69 18.9171 346.69 19.6528H346.641Z" fill="url(#paint1_radial_20_2762)"/>
<g style="mix-blend-mode:multiply">
<path d="M346.004 84.5465C346.004 85.2332 346.004 85.9036 345.971 86.5903C341.67 86.6884 337.37 86.7374 333.052 86.7538C318.744 86.7865 304.452 86.3123 290.16 85.4294C238.845 82.2411 188.005 73.7064 137.836 62.6537C112.833 57.1437 87.9441 50.9633 62.663 46.8267C49.5973 44.6849 36.4499 43.1643 23.237 42.4449C17.4482 42.1179 11.6758 41.9708 5.88696 41.9217C5.88696 41.3494 5.88696 40.7935 5.88696 40.2213C27.9793 39.9106 50.2024 42.3632 71.8532 46.0746C79.5061 47.3826 87.1264 48.8705 94.714 50.4565C101.991 51.9607 109.251 53.563 116.496 55.198C116.496 55.2144 116.512 55.2144 116.528 55.2144C126.765 57.487 137.018 59.8251 147.271 62.0487C172.503 67.477 197.866 72.2348 223.392 75.979C249.017 79.7396 274.805 82.4864 300.674 83.7944C313.642 84.4484 326.642 84.7427 339.626 84.6282C341.752 84.6119 343.894 84.5792 346.02 84.5465H346.004Z" fill="#F2E7E1"/>
<path d="M346.347 54.8547C346.347 55.6558 346.347 56.457 346.314 57.2745C336.781 58.468 327.182 59.2201 317.583 59.6943C275.164 61.8198 232.435 57.5361 191.292 46.9903C171.849 42.0198 152.455 35.9049 134.189 27.55C125.751 23.6913 117.608 19.0806 110.053 13.685C106.586 11.2162 103.234 8.56745 100.061 5.70618H102.285C114.255 15.222 128.008 22.4324 142.104 28.3021C160.631 36.0193 180.074 41.7746 199.599 46.3526C219.746 51.0778 240.235 54.3315 260.856 56.0973C281.558 57.8794 302.408 58.141 323.143 56.8821C330.894 56.4243 338.645 55.7703 346.347 54.8547Z" fill="#F2E7E1"/>
<path d="M346.592 25.7187C346.592 26.5362 346.592 27.3537 346.592 28.1713C343.632 29.0705 340.673 29.888 337.697 30.6238C314.656 36.3136 290.814 37.0003 267.315 34.4497C267.201 34.4497 267.103 34.4497 266.988 34.4007C262.164 33.8938 257.356 33.2234 252.565 32.4223C252.565 32.4386 252.532 32.4223 252.516 32.4223C252.205 32.3896 251.895 32.3242 251.584 32.2751C246.22 31.3759 240.824 30.3785 235.444 29.2504C226.188 27.321 216.966 24.983 208.053 22.04C201.84 19.9798 195.642 17.233 190.965 12.5405C188.986 10.5458 187.22 8.24045 186.027 5.70618H190.18C191.897 8.53475 194.121 11.0363 196.966 13.1291C203.001 17.5927 210.326 19.6692 217.489 21.5495C245.452 28.8743 274.183 34.1064 303.193 32.9618C316.307 32.4386 329.389 30.5584 342.046 27.0758C343.583 26.6507 345.104 26.2092 346.641 25.7187H346.592Z" fill="#F2E7E1"/>
<path d="M345.382 128.839C345.382 129.771 345.35 130.719 345.333 131.668C326.119 133.303 307.003 136.458 288.165 140.088C257.634 145.974 227.3 153.152 197.016 160.182C166.992 167.147 137.034 174.423 107.436 183.023C88.2384 188.599 70.3323 195.76 51.6741 202.578C61.0931 203.15 70.365 202.088 79.7023 203.559C85.9654 204.556 92.5555 207.401 98.7694 207.876C87.8132 207.025 76.8406 206.191 65.8681 205.341C51.5105 204.229 39.3933 205.325 26.2786 211.391C20.2445 214.187 14.3248 217.31 8.69957 220.858C8.69957 220.04 8.66687 219.239 8.65051 218.421C15.4368 214.367 22.5338 210.835 29.778 207.696C42.7619 202.022 56.1547 197.297 69.5801 192.752C84.5427 187.683 99.6525 183.04 114.844 178.691C145.456 169.943 176.379 162.439 207.399 155.293C230.555 149.963 253.71 144.486 277.012 139.695C280.692 138.927 284.387 138.208 288.083 137.488C288.132 137.472 288.165 137.472 288.197 137.472C292.531 136.622 296.864 135.804 301.214 135.019C315.833 132.403 330.567 130.229 345.366 128.839H345.382Z" fill="#F2E7E1"/>
<path d="M229.77 109.66C229.017 113.666 225.763 116.446 222.509 118.588C218.781 121.024 214.627 122.937 210.67 124.948C202.134 129.264 193.467 133.27 184.669 136.998C153.142 150.405 120.306 160.395 87.0283 168.439C60.8642 174.75 34.4221 179.802 7.9637 184.691C7.94735 183.612 7.931 182.533 7.91465 181.47C19.9665 179.312 31.9856 177.023 43.9884 174.636C69.6619 169.535 98.8021 165.823 122.889 155.277C117.199 151.631 111.524 147.969 105.85 144.306C113.47 148.034 125.293 154.427 134.124 152.563C137.574 151.827 140.697 150.045 143.853 148.476C147.713 146.546 151.703 144.911 155.791 143.521C163.444 140.905 171.342 139.14 179.011 136.573C186.534 134.055 192.649 129.771 200.139 127.286C202.952 126.337 206.435 124.081 205.306 121.351C186.664 120.174 168.022 118.98 149.397 117.803C170.295 116.119 191.325 116.037 212.256 117.541C216.475 117.852 220.956 116.642 222.248 112.227C208.217 102.45 188.185 99.2944 171.865 95.3704C139.651 87.604 106.831 82.1267 73.8972 78.5461C51.3961 76.0935 28.8132 74.8346 6.21398 73.9353C6.21398 72.9053 6.21398 71.8752 6.18127 70.8452C16.1563 70.7307 26.1477 70.9106 36.1391 71.3193C69.5801 72.6927 103.054 76.6004 135.955 82.7317C152.308 85.7728 168.562 89.3535 184.686 93.4083C200.057 97.2833 215.478 101.436 229.508 108.974C229.77 109.137 229.851 109.366 229.77 109.66Z" fill="#F2E7E1"/>
<path d="M131.785 121.907C121.957 129.477 110.592 134.545 98.8185 138.224C88.3528 141.51 77.6419 143.816 66.9637 146.203C54.7647 148.933 42.582 151.664 30.3667 154.362C22.7464 156.046 15.1261 157.73 7.48947 159.381C7.48947 158.22 7.45677 157.059 7.44042 155.898C28.6497 151.239 49.8262 146.546 71.0028 141.788C88.8925 137.766 107.878 134.055 123.151 123.362C106.439 117.394 89.4158 108.63 71.9839 115.628C65.3448 118.293 59.2453 122.135 53.1949 125.961C57.6264 123.035 62.0579 120.092 66.5058 117.165C68.6971 115.71 70.3977 113.797 72.5563 112.293C72.9978 111.982 73.472 111.622 73.5701 111.099C73.7827 110.134 72.6707 109.448 71.7386 109.088C59.0164 104.346 46.0488 104.821 32.7378 103.676C24.0383 102.924 15.306 102.45 6.57373 102.205C6.57373 101.534 6.57373 100.864 6.57373 100.194C11.087 100.063 15.6003 100.046 20.1136 100.128C38.8864 100.504 57.561 102.581 76.0557 105.769C94.9429 109.039 113.683 113.65 131.818 119.879C133.044 120.304 132.734 121.187 131.818 121.907H131.785Z" fill="#F2E7E1"/>
<path d="M343.224 240.004C343.191 241.639 343.158 243.274 343.109 244.909C331.957 242.44 320.723 240.641 309.259 240.968C282.016 241.753 254.658 239.023 228.102 232.891C248.82 234.297 269.539 235.703 290.274 237.11C292.76 237.289 295.965 236.979 296.668 234.592C276.685 230.668 256.67 227.904 236.507 225.632C207.121 222.313 177.507 221.577 148.072 224.602C119.145 227.594 90.6095 233.562 62.5976 241.262C48.9432 245.023 35.3215 248.98 21.8961 253.492C17.6771 254.898 13.5399 256.468 9.53355 258.25C9.53355 257.596 9.50085 256.942 9.4845 256.305C15.1098 253.787 20.9149 251.661 26.7201 249.683C40.816 244.86 55.1408 240.625 69.5311 236.783C98.7204 229 128.482 223.13 158.603 220.514C188.986 217.882 219.435 218.994 249.671 222.754C280.168 226.547 310.29 232.728 340.28 239.35C341.261 239.562 342.243 239.775 343.224 240.004Z" fill="#F2E7E1"/>
<path d="M217.424 180.734C217.832 185.443 222.46 188.746 226.238 190.855C231.225 193.635 236.687 195.744 241.952 197.967C253.203 202.758 264.65 207.107 276.244 210.982C298.205 218.323 320.69 224.111 343.485 228.231C343.485 229.18 343.453 230.144 343.42 231.093C339.283 230.357 335.162 229.556 331.057 228.706C306.659 223.653 282.703 216.737 259.351 208.055C242.263 201.695 227.807 194.632 209.215 195.662C200.564 196.152 191.914 196.643 183.263 197.117C195.511 195.711 207.776 194.289 220.04 192.882C217.293 185.656 208.74 180.358 218.454 173.508C222.951 170.336 228.592 168.488 233.743 166.706C239.712 164.646 245.812 162.962 251.927 161.441C264.601 158.302 277.388 155.621 290.225 153.184C308.442 149.734 326.724 146.906 345.121 144.895C345.121 145.304 345.121 145.729 345.088 146.154C323.993 148.803 302.98 152.073 282.147 156.225C269.735 158.711 257.307 161.343 245.092 164.678C239.091 166.314 233.155 168.21 227.415 170.581C223.016 172.396 216.917 174.946 217.424 180.734Z" fill="#F2E7E1"/>
<path d="M290.732 176.042C286.938 180.211 293.626 185.607 296.619 188.043C300.674 191.346 305.319 193.847 310.159 195.793C320.494 199.946 331.761 201.81 342.7 203.543C343.142 203.608 343.567 203.674 344.009 203.739C343.976 205.194 343.943 206.666 343.927 208.137C339.087 207.467 334.279 206.666 329.488 205.75C318.204 203.608 306.545 201.09 296.504 195.237C291.926 192.555 287.118 188.942 284.207 184.413C280.757 179.034 286.186 174.995 290.601 172.821C302.13 167.147 315.032 163.55 327.754 161.866C333.429 161.114 339.136 160.754 344.843 160.787C344.843 161.686 344.81 162.602 344.794 163.518C343.6 163.485 342.406 163.469 341.212 163.485C334.606 163.55 328.032 164.172 321.524 165.316C315.866 166.313 310.273 167.736 304.828 169.584C301.917 170.581 299.039 171.676 296.226 172.935C294.362 173.753 292.122 174.489 290.732 176.042Z" fill="#F2E7E1"/>
<path d="M341.409 315.999C341.343 318.337 341.294 320.691 341.212 323.046C334.459 319.122 327.705 315.214 320.952 311.323C294.673 296.134 268.231 281.124 240.53 268.665C226.81 262.501 212.73 256.484 198.095 252.838C190.671 250.991 183.132 249.895 175.479 249.879C167.548 249.846 159.666 250.729 151.817 251.727C141.515 253.018 131.197 254.326 120.894 255.765C116.888 256.321 112.898 256.91 108.908 257.515C95.4009 259.591 81.9264 261.994 68.6481 265.117C48.5999 269.826 28.7806 276.137 10.155 284.95C10.155 284.525 10.155 284.116 10.1223 283.691C31.3479 273.145 54.1434 266.245 77.2659 261.03C91.3618 257.842 105.572 255.307 119.848 253.182C134.549 250.974 149.299 248.784 164.065 247.247C172.127 246.413 180.205 246.004 188.3 246.707C195.871 247.377 203.311 249.045 210.572 251.252C225.355 255.732 239.679 261.962 253.677 268.469C281.836 281.566 308.769 297.131 335.62 312.68C337.549 313.792 339.479 314.903 341.409 315.999Z" fill="#F2E7E1"/>
<path d="M340.084 365.932C340.035 368.041 339.97 370.167 339.921 372.292C330.976 368.385 321.965 364.608 313.004 360.766C283.472 348.111 253.939 335.308 223.801 324.109C194.465 313.219 164.294 304.096 133.241 299.763C106.177 295.986 78.5904 296.248 51.8049 301.856C37.5455 304.848 23.8748 309.508 10.9236 315.754C10.9072 314.887 10.8909 314.037 10.8582 313.17C26.3113 305.568 43.04 300.385 59.834 297.245C87.8623 292.03 116.659 292.471 144.753 296.886C176.509 301.889 207.252 311.732 237.227 323.144C251.339 328.523 265.337 334.197 279.269 340.017C280.773 340.655 282.294 341.276 283.815 341.914C298.908 348.258 313.936 354.749 328.981 361.223C332.66 362.809 336.372 364.363 340.084 365.932Z" fill="#F2E7E1"/>
<path d="M266.874 375.857C264.486 372.243 260.578 369.922 257.029 367.633C253.072 365.049 249.033 362.597 244.912 360.275C236.703 355.599 228.233 351.413 219.533 347.702C184.817 332.921 146.699 325.776 108.973 327.133C89.9554 327.836 70.9374 330.649 52.5571 335.586C38.3958 339.38 24.2345 344.579 11.8883 352.623C11.921 353.294 11.9374 353.964 11.9537 354.634C20.7023 349.108 30.2686 344.841 40.1292 341.62C40.816 341.391 41.4864 341.178 42.1732 340.966C44.25 340.312 46.3431 339.707 48.4526 339.118C63.219 335.03 78.4268 332.48 93.7001 331.384C129.136 328.883 164.981 333.755 198.422 345.772C204.08 347.816 209.656 350.04 215.151 352.492C216.917 353.277 218.699 354.078 220.449 354.912C229.41 359.131 238.093 363.888 246.466 369.17C251.224 372.178 264.355 378.898 259.27 386.354C257.536 388.904 254.413 389.28 251.649 389.934C246.973 391.03 242.279 392.06 237.57 393.008C198.634 400.774 158.751 403.407 119.112 400.905C105.785 400.071 92.4737 398.616 79.2772 396.589C77.6256 396.343 75.9739 396.082 74.3223 395.804C69.5474 395.035 64.7724 394.169 60.0302 393.237C50.2841 391.308 40.587 389.068 30.9881 386.517C26.115 385.225 21.2747 383.852 16.467 382.397C15.2406 382.021 13.9487 381.677 12.6569 381.334C12.7223 383.329 12.7713 385.34 12.8204 387.351C20.5061 389.624 28.2736 391.684 36.0574 393.548C56.6289 398.436 77.5274 401.87 98.5568 403.881C140.55 407.887 183.149 406.317 224.668 398.845C229.982 397.897 235.264 396.85 240.53 395.706C245.386 394.676 250.341 393.711 255.083 392.223C261.723 390.13 272.417 384.261 266.857 375.857H266.874Z" fill="#F2E7E1"/>
<path d="M205.159 373.829C200.286 371.05 194.89 368.957 189.69 366.864C184.326 364.706 178.881 362.76 173.37 361.011C162.266 357.496 150.852 354.781 139.307 353.097C121.074 350.563 102.825 350.661 84.461 351.103C78.5414 351.233 72.4909 351.397 66.8984 353.375C60.946 355.485 52.0339 361.044 52.1157 368.303C52.1811 373.208 58.9674 375.889 62.6304 377.688C67.6179 380.14 72.9161 381.972 78.2961 383.411C89.5303 386.403 101.206 387.563 112.784 388.43C125.522 389.395 138.326 389.738 151.114 389.427C163.869 389.117 176.608 388.201 189.281 386.632C194.661 385.961 201.087 385.879 205.879 382.985C207.498 381.988 209.117 380.517 209.002 378.44C208.888 376.298 206.876 374.81 205.159 373.829ZM202.968 380.827C202.935 381.105 202.396 382.086 202.494 382.086C201.758 382.609 199.697 382.56 198.863 382.675C187.237 384.277 175.545 385.356 163.836 385.896C159.699 386.092 155.546 386.223 151.376 386.305C149.348 386.354 147.32 386.37 145.276 386.37C128.547 386.452 111.704 385.471 95.3027 382.74C83.8396 380.844 72.3601 377.623 62.4178 371.41C60.2919 370.085 57.9699 368.238 58.5259 365.393C58.9347 363.251 60.7989 361.648 62.5486 360.537C77.7074 350.874 98.9657 351.659 116.937 353.457C116.937 353.457 116.937 353.473 116.97 353.457C116.97 353.457 116.981 353.457 117.003 353.457C117.003 353.457 117.003 353.473 117.035 353.457C117.068 353.473 117.101 353.473 117.133 353.473C118.801 353.637 120.42 353.817 122.006 353.997C122.579 354.062 123.118 354.127 123.674 354.193C144.655 356.564 165.406 361.698 184.964 369.693C189.771 371.655 194.661 373.666 199.223 376.135C200.891 377.034 203.279 378.587 202.935 380.827H202.968Z" fill="#F2E7E1"/>
<path d="M140.518 36.5099C130.265 41.2024 120.355 46.6797 110.903 52.86C111.688 52.3532 119.03 56.6859 120.224 57.2582C117.362 55.1163 109.889 55.149 106.341 54.3642C100.634 53.1053 94.9266 51.8136 89.2196 50.4892C99.5381 50.7999 108.548 49.1976 118.147 45.7477C125.718 43.0336 133.077 39.6001 140.501 36.4935L140.518 36.5099Z" fill="#F2E7E1"/>
<path d="M283.406 51.3721C274.968 46.2054 266.17 41.6111 257.095 37.6543C257.634 35.6269 260.218 35.0546 262.311 35.0873C264.404 35.12 266.841 35.2672 268.215 33.6976C264.535 37.8996 234.97 26.5689 229.753 25.9313C246.515 36.6243 266.498 41.0224 283.422 51.3721H283.406Z" fill="#F2E7E1"/>
<path d="M291.043 129.591C284.273 136 276.113 140.938 267.282 143.947C283.177 138.093 299.775 134.202 316.618 132.371C310.551 132.142 304.452 131.896 298.549 130.507C276.489 125.324 262.001 106.063 241.805 97.2178C257.095 109.922 274.919 118.048 291.059 129.607L291.043 129.591Z" fill="#F2E7E1"/>
<path d="M112.162 258.675C124.345 268.453 136.528 278.23 148.71 287.991C139.487 280.813 131.344 272.377 123.233 263.973C121.728 262.403 120.126 260.654 119.946 258.479C119.783 256.305 121.957 253.934 123.952 254.833C115.972 254.195 107.028 254.67 99.4563 257.4C104.329 259.493 107.698 255.7 112.162 258.675Z" fill="#F2E7E1"/>
<path d="M279.792 340.148C275.524 323.553 262.982 310.489 255.182 295.218C267.838 311.421 278.435 329.259 286.611 348.127C286.039 346.803 279.285 344.89 277.813 344.187C274.543 342.65 271.305 341.047 268.1 339.363C265.14 337.826 252.205 332.496 252.238 329.341C261.461 333.314 269.866 337.826 279.792 340.148Z" fill="#F2E7E1"/>
<path d="M35.9593 341.685C39.2461 340.426 42.7619 342.535 45.64 344.563C49.2212 347.081 52.8188 349.598 56.4 352.133C53.6691 349.222 51.0854 346.165 48.6652 342.993C48.3872 342.633 48.1092 342.257 47.9457 341.816C47.5369 340.704 48.0602 339.412 48.9105 338.578C49.7608 337.745 50.8892 337.27 51.9848 336.829C45.3947 339.559 37.6109 338.104 32.002 343.729C33.4083 343.32 34.5202 342.225 35.9593 341.669V341.685Z" fill="#F2E7E1"/>
<path d="M215.151 352.443C215.592 353.359 214.807 354.373 214.088 355.108C209.46 359.752 204.832 364.395 200.204 369.039C205.911 366.227 211.226 362.613 215.968 358.362C217.456 357.021 218.928 355.599 220.743 354.765C222.558 353.931 224.864 353.8 226.45 355.027C221.97 353.048 217.473 351.054 212.992 349.075C210.784 348.094 208.364 346.901 205.944 346.852C208.07 348.993 213.891 349.811 215.134 352.46L215.151 352.443Z" fill="#F2E7E1"/>
<path d="M116.594 354.307C117.264 354.569 117.967 354.88 118.409 355.452C118.752 355.893 118.899 356.466 119.047 357.005L120.731 363.447C120.159 360.079 120.698 356.531 122.268 353.506C119.243 353.457 116.119 353.588 113.111 353.261C114.288 353.522 115.465 353.882 116.594 354.307Z" fill="#F2E7E1"/>
<path d="M136.25 372.407C142.333 375.84 148.22 381.072 151.85 387.057C149.217 388.005 143.755 389.1 141.09 388.61C142.66 388.904 144.328 388.643 145.734 387.907C144.54 383.28 140.534 374.81 136.25 372.407Z" fill="#F2E7E1"/>
<path d="M80.7652 399.466C78.2306 398.812 75.8104 397.668 73.7009 396.131C76.9878 394.529 80.0621 392.518 82.8584 390.163C81.7137 391.814 80.569 393.449 79.4243 395.101C79.179 395.444 78.9337 395.869 79.0646 396.262C79.1627 396.556 79.4407 396.736 79.7023 396.899C81.7464 398.158 83.7905 399.417 85.8345 400.676C84.2483 399.973 82.5313 399.581 80.7979 399.548L80.7489 399.483L80.7652 399.466Z" fill="#F2E7E1"/>
</g>
<path d="M346.641 19.6528C346.641 51.3721 346.053 83.1077 345.578 114.827C345.399 126.436 345.219 138.044 345.022 149.653C344.924 155.555 344.81 161.441 344.712 167.344C344.663 170.434 344.597 173.508 344.532 176.598C344.466 179.917 343.829 180.08 342.112 182.647C341.229 183.972 341.834 185.754 342.651 187.127C345.726 192.31 344.074 199.88 343.96 205.783C343.812 213.059 343.649 220.334 343.502 227.594C343.175 242.456 342.848 257.335 342.488 272.197C341.229 255.929 340.853 239.595 340.902 223.277C340.934 215.102 341.065 206.944 341.245 198.768C341.294 196.905 341.229 195.09 341.703 193.275C341.948 192.327 342.586 191.46 342.521 190.446C342.439 189.073 338.171 183.432 339.43 182.337C340.247 181.617 341.081 180.865 341.572 179.9C342.733 177.611 341.932 172.854 342.014 170.303C342.112 166.673 342.226 163.043 342.341 159.414C342.57 152.171 342.798 144.928 343.126 137.684C343.632 125.961 341.997 114.189 343.191 102.384C343.632 97.9045 344.123 93.4246 344.107 88.912C344.107 84.1541 343.518 79.4126 343.109 74.671C342.243 64.5176 342.144 54.2988 342.798 44.129C343.256 36.9022 346.821 26.2746 343.354 19.4893C340.705 14.3063 334.508 8.66555 328.768 7.22674C322.685 5.70618 316.209 6.80164 310.061 7.06324C297.78 7.61914 285.466 7.74994 273.186 7.47199C262.229 7.22674 251.339 5.78793 240.562 7.45564C236.752 8.0606 232.958 8.8454 229.116 9.15605C225.109 9.48306 221.07 9.27051 217.047 9.0743C182.527 7.37389 148.497 6.81799 113.945 7.35754C96.6109 7.61914 79.2935 7.96249 61.9598 8.33855C53.3093 8.53475 44.6425 8.7473 35.9756 8.9762C28.8622 9.15605 21.5363 7.53739 15.5676 12.1154C13.082 14.012 8.50332 17.3475 7.37499 20.3232C7.03159 21.2388 7.04794 22.2362 7.06429 23.2008C7.65298 51.65 8.69955 80.0502 9.56623 108.516C10.0732 125.765 10.5964 143.047 10.3839 160.313C10.3348 164.319 9.71341 168.668 10.3184 172.641C10.7273 175.29 11.5285 177.53 11.6103 180.26C11.8065 188.452 11.6921 196.676 11.7411 204.867C11.8719 227.855 11.1034 250.876 10.1222 273.832C10.0895 274.715 10.0405 275.598 9.97505 276.497C7.60393 177.366 6.19761 92.6071 5.70703 19.6528C5.70703 18.9007 5.95232 18.1977 6.41019 17.6091C10.0732 12.8512 13.6871 9.1724 17.4809 6.36018C18.0369 5.93508 18.74 5.70618 19.4595 5.70618H332.889C333.592 5.70618 334.295 5.93508 334.867 6.36018C338.661 9.1724 342.292 12.8512 345.938 17.6091C346.396 18.1977 346.641 18.9171 346.641 19.6528Z" fill="#FA8C37"/>
<g style="mix-blend-mode:screen">
<path d="M204.57 125.193C204.832 124.964 205.077 124.702 205.323 124.441C205.552 124.196 207.318 121.024 206.5 121.024C189.87 121.024 173.239 120.092 156.723 118.244C169.952 120.206 184.686 121.759 198.046 122.561C199.419 122.642 201.316 122.691 202.526 123.378C202.608 123.427 202.706 123.493 202.755 123.574C202.804 123.689 202.772 123.803 202.755 123.918C202.526 124.735 202.167 125.504 201.692 126.207C201.774 126.419 201.856 126.615 201.954 126.828C202.935 126.436 203.818 125.863 204.603 125.16L204.57 125.193Z" fill="#3B1A09"/>
</g>
<g style="mix-blend-mode:screen">
<path d="M317.207 86.7047C290.372 88.2089 263.799 81.7343 237.014 79.7068C228.985 79.1019 220.89 78.873 213.041 77.0745C219.5 79.854 227.088 80.6388 234.103 81.2274C261.706 83.5328 289.718 90.0728 317.207 86.721V86.7047Z" fill="#3B1A09"/>
</g>
<g style="mix-blend-mode:screen">
<path d="M256.899 39.2077C257.504 39.4693 258.092 39.7472 258.648 40.0742C255.574 38.2757 252.369 36.7388 249.049 35.4635C246.04 34.319 243.538 33.011 240.693 31.5721C239.009 30.7219 237.308 29.8554 235.493 29.3158C233.809 28.809 232.043 28.5801 230.293 28.2858C222.247 26.9614 214.48 24.3454 206.762 21.7294C215.641 24.9503 224.553 28.1386 233.449 31.3269C237.88 32.9129 242.328 34.4988 246.76 36.1011C249.867 37.2129 253.759 37.8669 256.931 39.224L256.899 39.2077Z" fill="#3B1A09"/>
</g>
<g style="mix-blend-mode:screen">
<path d="M140.926 173.965C138.016 174.603 135.121 175.224 132.243 176.026C125.146 177.971 118.245 180.604 111.067 182.337C107.616 183.17 104.133 183.792 100.715 184.724C97.6084 185.558 94.5668 186.653 91.5416 187.732C83.1363 190.741 74.7148 193.749 66.3096 196.757C79.0482 193.471 92.6862 189.335 105.441 186.048C109.562 184.985 113.683 183.923 117.722 182.631C121.221 181.503 124.655 180.211 128.122 179.034C130.346 178.282 132.685 177.301 135.007 176.908C136.446 176.663 137.77 176.729 139.193 176.271C143.657 174.799 147.892 172.51 152.324 170.924C148.563 172.265 144.736 173.148 140.926 173.998V173.965Z" fill="#3B1A09"/>
</g>
<g style="mix-blend-mode:screen">
<path d="M290.029 232.711C277.47 230.668 264.862 228.967 252.287 227.022C239.663 225.06 227.431 223.637 214.611 223.98C220.367 224.455 225.976 225.615 231.617 226.515C237.831 227.512 244.209 227.872 250.456 228.64C262.998 230.177 275.524 231.927 288.05 233.676C291.386 234.134 293.708 234.821 296.439 236.668C296.831 236.014 297.028 235.148 296.586 234.526C295.556 233.087 291.599 232.957 290.029 232.695V232.711Z" fill="#3B1A09"/>
</g>
<g style="mix-blend-mode:screen">
<path d="M239.467 268.191C228.609 263.417 217.718 258.643 206.369 255.176C195.02 251.71 183.165 249.552 171.326 250.19C168.333 250.353 165.357 250.68 162.381 251.024C149.609 252.462 136.854 253.885 124.067 255.193C137.934 254.522 151.801 253.721 165.635 252.773C178.635 251.874 191.488 252.822 204.08 256.419C216.034 259.787 227.071 266.36 239.45 268.208L239.467 268.191Z" fill="#3B1A09"/>
</g>
<g style="mix-blend-mode:screen">
<path d="M91.7542 297.605C88.0748 297.638 84.3792 297.671 80.6998 297.703C78.1325 297.72 75.5651 297.752 73.0141 297.981C70.2179 298.243 67.4543 298.766 64.6907 299.306C46.523 302.772 27.9956 306.369 11.9047 315.476C15.8293 313.775 20.8332 311.977 24.8886 310.603C46.0488 303.426 69.4656 298.848 91.7705 297.589L91.7542 297.605Z" fill="#3B1A09"/>
</g>
<g style="mix-blend-mode:screen">
<path d="M259.384 381.677C259.76 382.462 260.055 383.28 260.284 384.13C260.087 383.411 260.938 381.972 260.709 380.942C260.431 379.748 259.907 379.258 259.057 378.489C257.373 376.985 255.443 375.448 253.661 374.009C249.344 370.543 244.307 368.123 239.63 365.213C234.986 362.319 230.718 358.869 226.009 356.106C224.52 355.239 221.855 353.097 220.073 353.8C218.241 354.536 216.933 358.019 215.314 359.409C213.352 361.109 211.046 362.368 208.871 363.758C212.567 362.384 216.671 359.834 219.598 357.201C220.073 356.776 220.596 356.302 221.234 356.269C221.79 356.237 222.297 356.531 222.754 356.809C230.358 361.42 237.979 365.425 245.812 369.627C248.902 371.295 251.976 373.077 254.593 375.432C256.555 377.198 258.272 379.307 259.384 381.677Z" fill="#3B1A09"/>
</g>
<g style="mix-blend-mode:screen">
<path d="M177.474 42.4122C152.978 37.7851 129.561 27.5663 109.497 12.7858C112.882 16.0558 116.545 19.5711 120.518 22.1053C124.018 24.3453 127.893 25.9313 131.736 27.5172C139.684 30.7873 147.631 34.0573 155.578 37.311C160.01 39.1258 164.458 40.957 169.053 42.2814C173.877 43.6712 178.864 44.5214 183.868 44.783C182.2 44.0145 179.273 42.7392 177.474 42.3959V42.4122Z" fill="#3B1A09"/>
</g>
<g style="mix-blend-mode:screen">
<path d="M336.715 25.637C334.802 23.3807 332.922 21.0589 330.632 19.1296C324.745 14.1755 316.52 14.5679 309.096 14.3717C299.791 14.1265 290.487 13.9793 281.182 13.7668C268.067 13.4725 254.936 13.3253 241.805 13.3417C228.985 13.358 162.283 13.5542 149.479 13.8812C136.675 13.5542 123.854 13.358 111.034 13.3417C97.9027 13.3253 84.788 13.4561 71.6569 13.7668C62.3523 13.9793 53.0477 14.1428 43.7431 14.3717C36.319 14.5679 28.0937 14.1592 22.2067 19.1296C19.9174 21.0589 18.0368 23.3807 16.1236 25.637C14.6846 27.3374 12.1499 28.6945 13.1801 31.0489C15.1588 35.5942 20.3753 39.0931 24.5452 41.7746C26.998 43.3278 30.1214 38.5209 31.1516 37.0984C32.9177 34.6459 34.6347 31.9154 36.7115 29.5774C38.0524 28.0732 39.3606 27.8116 37.7253 26.2092C36.4662 24.9666 35.1416 23.7894 33.9969 22.4487C33.2611 21.5822 31.0371 22.7594 30.4484 23.3153C27.9628 25.7024 25.6735 28.3348 23.0898 30.6074C21.6017 31.9154 25.7062 31.2287 26.4748 30.3295C27.9955 28.5473 29.827 26.7978 31.7403 25.3917C33.0485 24.4434 32.607 24.6396 33.6045 25.4898C34.3076 26.0948 35.1253 26.9286 35.0762 27.8933C35.0598 28.2694 34.9127 28.6127 34.7164 28.9397C32.656 32.5367 29.0258 35.2182 26.671 38.668C26.1314 39.4692 18.8054 32.5694 18.1023 31.8991C16.3525 30.2314 16.2544 29.0378 17.9551 27.2066C20.5715 24.3944 23.2533 21.0263 26.6056 19.0315C31.5113 16.1212 37.2674 17.0368 42.7946 16.9551C51.9847 16.8079 61.3384 16.6935 70.5285 16.4809C84.3955 16.1703 97.8536 15.4836 111.721 15.5163C118.556 15.5326 125.391 15.6961 132.227 15.8923C150.574 16.4155 222.738 15.5817 241.102 15.5163C254.969 15.4672 268.427 16.1539 282.294 16.4809C291.468 16.6935 300.838 16.8243 310.028 16.9551C315.555 17.0368 321.311 16.1376 326.217 19.0315C329.569 21.0099 332.267 24.3944 334.867 27.2066C336.568 29.0378 336.486 30.215 334.72 31.8991C334.001 32.5694 326.691 39.4692 326.152 38.668C323.797 35.2182 320.15 32.5367 318.106 28.9397C317.926 28.6127 317.779 28.2694 317.746 27.8933C317.697 26.9286 318.515 26.0948 319.218 25.4898C320.216 24.6396 319.774 24.4434 321.082 25.3917C322.996 26.7978 324.827 28.5473 326.348 30.3295C327.116 31.2124 331.221 31.8991 329.733 30.6074C327.149 28.3348 324.86 25.7024 322.374 23.3153C321.785 22.743 319.561 21.5822 318.826 22.4487C317.681 23.7894 316.373 24.9666 315.097 26.2092C313.462 27.8116 314.77 28.0732 316.111 29.5774C318.188 31.9154 319.905 34.6459 321.671 37.0984C322.701 38.5372 325.825 43.3442 328.277 41.7746C332.464 39.0931 337.664 35.5942 339.642 31.0489C340.656 28.7108 338.138 27.3538 336.699 25.637H336.715Z" fill="#3B1A09"/>
</g>
<path d="M335.62 23.9856C333.707 21.7293 331.826 19.4076 329.537 17.4783C323.65 12.5242 315.424 12.9166 308 12.7204C298.696 12.4751 289.391 12.328 280.087 12.1154C266.972 11.8211 253.841 11.674 240.71 11.6903C227.889 11.7067 161.187 11.9029 148.383 12.2299C135.579 11.9029 122.759 11.7067 109.938 11.6903C96.8071 11.674 83.6924 11.8048 70.5613 12.1154C61.2567 12.328 51.9521 12.4915 42.6475 12.7204C35.2234 12.9166 26.9981 12.5078 21.1112 17.4783C18.8218 19.4076 16.9413 21.7293 15.028 23.9856C13.589 25.686 11.0543 27.0431 12.0846 29.3975C14.0632 33.9428 19.2797 37.4418 23.4496 40.1232C25.9025 41.6765 29.0258 36.8695 30.056 35.4471C31.8221 32.9945 33.5391 30.2641 35.6159 27.926C36.9568 26.4218 38.265 26.1602 36.6297 24.5579C35.3706 23.3153 34.046 22.1381 32.9014 20.7973C32.1655 19.9308 29.9415 21.108 29.3528 21.6639C26.8673 24.051 24.5779 26.6834 21.9942 28.9561C20.5061 30.2641 24.6106 29.5774 25.3792 28.6781C26.9 26.8959 28.7315 25.1465 30.6447 23.7404C31.9529 22.7921 31.5114 22.9883 32.5089 23.8385C33.212 24.4434 34.0297 25.2773 33.9806 26.2419C33.9643 26.618 33.8171 26.9613 33.6209 27.2883C31.5604 30.8854 27.9302 33.5668 25.5754 37.0167C25.0358 37.8178 17.7098 30.9181 17.0067 30.2477C15.257 28.58 15.1588 27.3864 16.8595 25.5552C19.4759 22.743 22.1577 19.3749 25.51 17.3802C30.4158 14.4862 36.1719 15.3855 41.699 15.3037C50.8892 15.1565 60.2428 15.0421 69.4329 14.8295C83.2999 14.5189 96.7581 13.8322 110.625 13.8649C117.46 13.8812 124.296 14.0447 131.131 14.2409C149.479 14.7641 221.643 13.9303 240.006 13.8649C253.873 13.8158 267.332 14.5025 281.198 14.8295C290.372 15.0421 299.742 15.1729 308.932 15.3037C314.46 15.3855 320.216 14.4862 325.121 17.3802C328.474 19.3585 331.172 22.743 333.772 25.5552C335.473 27.3864 335.391 28.5637 333.625 30.2477C332.905 30.9181 325.596 37.8178 325.056 37.0167C322.701 33.5668 319.055 30.8854 317.011 27.2883C316.831 26.9613 316.684 26.618 316.651 26.2419C316.602 25.2773 317.419 24.4434 318.123 23.8385C319.12 22.9883 318.678 22.7921 319.987 23.7404C321.9 25.1465 323.731 26.8959 325.252 28.6781C326.021 29.561 330.125 30.2477 328.637 28.9561C326.054 26.6834 323.764 24.051 321.279 21.6639C320.69 21.0916 318.466 19.9308 317.73 20.7973C316.585 22.1381 315.277 23.3153 314.002 24.5579C312.366 26.1602 313.675 26.4218 315.016 27.926C317.092 30.2641 318.809 32.9945 320.575 35.4471C321.606 36.8859 324.729 41.6928 327.182 40.1232C331.368 37.4418 336.568 33.9428 338.547 29.3975C339.561 27.0594 337.042 25.7024 335.603 23.9856H335.62Z" fill="#903145"/>
<g style="mix-blend-mode:screen">
<path d="M334.573 402.099C332.709 404.306 330.894 406.546 328.654 408.426C322.93 413.25 314.917 412.857 307.69 413.053C298.63 413.299 289.571 413.446 280.528 413.642C267.757 413.936 254.985 414.067 242.214 414.051C229.737 414.034 164.817 413.855 152.34 413.528C139.863 413.855 127.403 414.034 114.926 414.051C102.154 414.067 89.383 413.936 76.6117 413.642C67.5524 413.429 58.4931 413.282 49.4501 413.053C42.2223 412.857 34.2095 413.25 28.4861 408.426C26.2458 406.546 24.4307 404.29 22.5665 402.099C21.1602 400.431 18.7073 399.123 19.6885 396.834C21.6181 392.403 26.6874 389.002 30.7591 386.403C33.1466 384.882 36.1882 389.558 37.202 390.964C38.9191 393.351 40.587 396 42.6147 398.273C43.9229 399.744 45.1984 399.99 43.5959 401.543C42.3695 402.753 41.0776 403.897 39.9656 405.205C39.2461 406.039 37.0876 404.911 36.5152 404.355C34.0951 402.033 31.8711 399.466 29.3528 397.259C27.9138 395.984 31.9038 396.654 32.6397 397.521C34.1278 399.254 35.9102 400.954 37.7744 402.328C39.0499 403.26 38.6084 403.063 39.5895 402.23C40.2763 401.641 41.0776 400.823 41.0122 399.892C40.9958 399.532 40.8487 399.188 40.6688 398.878C38.6738 395.379 35.1253 392.763 32.8359 389.411C32.3126 388.643 25.1829 395.346 24.4798 396C22.7791 397.619 22.681 398.78 24.3326 400.562C26.8672 403.292 29.4836 406.579 32.7542 408.524C37.5291 411.353 43.138 410.47 48.518 410.552C57.4629 410.699 66.5712 410.813 75.5161 411.026C89.0233 411.337 102.105 412.007 115.613 411.958C122.268 411.942 128.924 411.794 135.563 411.598C153.42 411.091 223.654 411.909 241.544 411.958C255.051 412.007 268.133 411.337 281.64 411.026C290.568 410.813 299.693 410.699 308.638 410.552C314.018 410.47 319.611 411.353 324.402 408.524C327.672 406.595 330.289 403.309 332.823 400.562C334.475 398.78 334.393 397.619 332.676 396C331.99 395.346 324.86 388.626 324.32 389.411C322.031 392.763 318.482 395.379 316.487 398.878C316.307 399.188 316.16 399.532 316.144 399.892C316.095 400.823 316.896 401.641 317.567 402.23C318.531 403.063 318.106 403.26 319.382 402.328C321.246 400.954 323.028 399.254 324.516 397.521C325.252 396.654 329.259 395.984 327.803 397.259C325.285 399.483 323.061 402.033 320.641 404.355C320.068 404.911 317.91 406.039 317.19 405.205C316.078 403.897 314.803 402.753 313.56 401.543C311.974 399.973 313.249 399.728 314.541 398.273C316.569 396 318.237 393.351 319.954 390.964C320.952 389.575 324.009 384.882 326.397 386.403C330.469 389.002 335.538 392.42 337.468 396.834C338.449 399.107 335.996 400.431 334.59 402.099H334.573Z" fill="#3B1A09"/>
</g>
<path d="M333.396 401.216C331.532 403.423 329.716 405.663 327.476 407.543C321.753 412.367 313.74 411.974 306.512 412.17C297.453 412.416 288.394 412.563 279.351 412.759C266.579 413.053 253.808 413.184 241.037 413.168C228.56 413.151 163.64 412.972 151.163 412.645C138.686 412.972 126.225 413.151 113.748 413.168C100.977 413.184 88.2057 413.053 75.4343 412.759C66.375 412.547 57.3157 412.399 48.2727 412.17C41.0449 411.974 33.0322 412.367 27.3088 407.543C25.0685 405.663 23.2533 403.407 21.3891 401.216C19.9828 399.548 17.5299 398.24 18.5111 395.951C20.4407 391.52 25.51 388.119 29.5818 385.52C31.9692 383.999 35.0108 388.675 36.0247 390.081C37.7417 392.469 39.4097 395.117 41.4374 397.39C42.7456 398.861 44.0211 399.107 42.4185 400.66C41.1921 401.87 39.9002 403.014 38.7883 404.322C38.0687 405.156 35.9102 404.028 35.3379 403.472C32.9177 401.15 30.6937 398.583 28.1755 396.376C26.7364 395.101 30.7265 395.771 31.4623 396.638C32.9504 398.371 34.7328 400.071 36.597 401.445C37.8725 402.377 37.431 402.181 38.4122 401.347C39.099 400.758 39.9002 399.941 39.8348 399.009C39.8185 398.649 39.6713 398.306 39.4914 397.995C37.4964 394.496 33.9479 391.88 31.6585 388.528C31.1353 387.76 24.0056 394.463 23.3024 395.117C21.6017 396.736 21.5036 397.897 23.1552 399.679C25.6899 402.409 28.3063 405.696 31.5768 407.641C36.3517 410.47 41.9607 409.587 47.3406 409.669C56.2855 409.816 65.3939 409.931 74.3387 410.143C87.8459 410.454 100.928 411.124 114.435 411.075C121.091 411.059 127.746 410.911 134.385 410.715C152.242 410.208 222.476 411.026 240.366 411.075C253.873 411.124 266.955 410.454 280.463 410.143C289.391 409.931 298.516 409.816 307.461 409.669C312.841 409.587 318.433 410.47 323.225 407.641C326.495 405.712 329.111 402.426 331.646 399.679C333.298 397.897 333.216 396.736 331.499 395.117C330.812 394.463 323.682 387.743 323.143 388.528C320.853 391.88 317.305 394.496 315.31 397.995C315.13 398.306 314.983 398.649 314.966 399.009C314.917 399.941 315.719 400.758 316.389 401.347C317.354 402.181 316.929 402.377 318.204 401.445C320.068 400.071 321.851 398.371 323.339 396.638C324.075 395.771 328.081 395.101 326.626 396.376C324.108 398.6 321.884 401.15 319.463 403.472C318.891 404.028 316.733 405.156 316.013 404.322C314.901 403.014 313.626 401.87 312.383 400.66C310.797 399.09 312.072 398.845 313.364 397.39C315.392 395.117 317.06 392.469 318.777 390.081C319.774 388.692 322.832 383.999 325.22 385.52C329.291 388.119 334.361 391.537 336.29 395.951C337.271 398.224 334.818 399.548 333.412 401.216H333.396Z" fill="#903145"/>
</g>
<defs>
<linearGradient id="paint0_linear_20_2762" x1="177" y1="-94.9452" x2="177" y2="470.295" gradientUnits="userSpaceOnUse">
<stop stop-color="#D1590F"/>
<stop offset="0.11" stop-color="#C14E19"/>
<stop offset="0.33" stop-color="#9A3336"/>
<stop offset="0.63" stop-color="#5B0864"/>
<stop offset="0.64" stop-color="#590766"/>
<stop offset="0.74" stop-color="#421967"/>
<stop offset="1" stop-color="#0A4A6B"/>
</linearGradient>
<radialGradient id="paint1_radial_20_2762" cx="0" cy="0" r="1" gradientUnits="userSpaceOnUse" gradientTransform="translate(187.58 -4.44727) scale(1033.76 1033.61)">
<stop stop-color="#E06E16"/>
<stop offset="1" stop-color="#590766"/>
</radialGradient>
<clipPath id="clip0_20_2762">
<rect width="354" height="427" fill="white"/>
</clipPath>
</defs>
</svg>
