<svg width="219" height="55" viewBox="0 0 219 55" fill="none" xmlns="http://www.w3.org/2000/svg">
<path d="M218.361 11.0211C218.241 14.9711 218.051 18.8111 217.511 22.7211C217.491 22.8911 217.461 23.0611 217.361 23.2011C217.241 23.3711 217.031 23.4711 216.881 23.6111C216.461 24.0111 216.571 24.7011 216.761 25.2511C217.101 26.2411 217.301 27.4311 217.321 28.4911C217.441 33.8211 216.181 39.5711 215.421 44.8411C215.361 45.2711 215.211 45.6811 214.981 46.0411C213.631 48.1511 211.971 50.0711 210.041 51.6711C208.421 53.0111 206.351 54.8211 204.171 54.6511C201.171 54.4211 198.161 54.4811 195.151 54.5611C192.271 54.6411 189.391 54.5411 186.511 54.5211C182.331 54.4911 178.151 54.4611 173.971 54.4211C169.481 54.4211 164.981 54.3511 160.491 54.3111C156.071 54.2711 151.661 54.6211 147.431 53.3711C147.111 53.2811 146.781 53.1811 146.461 53.2211C145.631 53.3111 145.061 54.0911 144.251 54.2611C143.411 54.4311 142.101 54.1511 141.211 54.1411C138.731 54.1211 136.261 54.1011 133.781 54.0911C128.941 54.0611 124.111 54.0311 119.271 54.0211C109.721 53.9911 100.171 53.9911 90.6214 54.0711C79.7714 54.1511 68.9214 54.2411 58.0714 54.3211L13.7314 54.6611C13.2514 54.6611 12.7614 54.5611 12.3314 54.3311C9.80143 53.0011 7.53143 51.2111 5.65143 49.0611C3.86143 47.0111 3.13143 44.4311 2.45143 41.8211C1.96143 39.9411 3.06143 39.3911 4.76143 39.1711C4.09143 39.0211 3.42143 38.8611 2.76143 38.7111C2.54143 38.6611 2.31143 38.6011 2.16143 38.4311C2.04143 38.2911 2.00143 38.1111 1.96143 37.9311C0.0314299 29.0111 0.291431 20.1011 0.00143074 10.9911C-0.0185693 10.3311 0.17143 9.68111 0.55143 9.15111C3.00143 5.75111 6.10143 2.50111 8.97143 0.691111C9.42143 0.401111 9.96143 0.271111 10.4914 0.271111C13.8314 0.271111 17.1614 0.251111 20.5014 0.241111C23.7714 0.241111 27.0414 0.221111 30.3114 0.211111C33.4514 0.211111 37.0914 -0.31889 40.0414 0.98111C40.7914 1.31111 41.3514 0.711111 42.0314 0.481111C42.8514 0.201111 43.5514 0.181111 44.4314 0.171111C46.4814 0.151111 48.5314 0.161111 50.5714 0.151111C52.4014 0.151111 54.2414 0.141111 56.0714 0.131111C77.3914 0.131111 98.7014 0.0411106 120.021 0.0511107C124.841 0.0511107 129.661 0.0511109 134.481 0.0611109C136.841 0.0611109 139.191 0.0611111 141.551 0.0711111C142.691 0.0711111 143.961 -0.0888889 145.091 0.0711111C146.321 0.251111 146.441 0.711111 147.181 1.76111C147.241 1.84111 147.301 1.92111 147.391 1.95111C147.571 1.99111 147.711 1.79111 147.801 1.63111C148.621 0.191111 150.301 0.0811106 151.761 0.0911106L207.871 0.25111C208.301 0.37111 208.961 0.551111 209.391 0.671111C212.261 2.48111 215.371 5.73111 217.811 9.13111C218.191 9.66111 218.381 10.3111 218.361 10.9711V11.0211Z" fill="url(#paint0_linear_2008_22)"/>
<path d="M214.571 10.6111C214.571 10.7911 214.571 10.9711 214.551 11.1511C214.531 11.7811 214.511 12.4011 214.481 13.0311C214.361 16.2811 214.181 19.5311 213.951 22.7711C213.901 23.5011 213.851 24.2311 213.781 24.9511C213.331 30.9711 212.701 36.9511 211.901 42.8311C211.841 43.3111 211.781 43.7811 211.711 44.2511C211.211 45.0311 210.671 45.7711 210.091 46.4511C209.371 47.3211 208.591 48.1211 207.761 48.8311C207.741 48.8511 207.721 48.8611 207.701 48.8811L207.491 49.0611C206.761 49.6711 205.261 50.9511 204.651 51.0011C203.171 50.8811 201.531 50.8211 199.681 50.8211C198.201 50.8211 196.711 50.8611 195.231 50.9011C194.441 50.9211 193.651 50.9311 192.861 50.9311C191.671 50.9311 190.471 50.9111 189.281 50.8911C188.421 50.8811 187.571 50.8711 186.711 50.8611L174.141 50.7611C168.601 50.7211 163.061 50.6711 157.521 50.6211C154.791 50.5911 151.661 51.0911 149.081 50.2111C148.371 49.9711 147.641 49.7311 146.891 49.7611C145.971 49.8111 145.221 50.1711 144.351 50.3611C144.011 50.4511 143.661 50.5011 143.271 50.5011C141.651 50.5011 140.021 50.4711 138.401 50.4611C135.141 50.4311 131.881 50.4111 128.621 50.3911C121.981 50.3511 115.351 50.3311 108.711 50.3311C102.071 50.3311 96.3515 50.3511 90.5615 50.4011L79.5715 50.4911L69.8215 50.5611L13.7615 51.0011C13.4615 51.0011 13.1215 50.8911 12.7515 50.6911C12.7515 50.6911 12.7515 50.7011 12.7315 50.6911C12.2215 50.4211 11.6815 50.0011 11.1415 49.5211C10.0115 48.5011 8.92149 47.2211 8.40149 46.6011C7.22149 45.2211 6.58149 43.8611 6.29149 42.3111C6.22149 41.8711 6.17149 41.4211 6.14149 40.9511C6.12149 40.6211 6.11149 40.2911 6.11149 39.9511C8.05149 39.3411 10.0215 38.8311 12.0115 38.4211C10.0015 38.6111 7.99149 38.7111 5.99149 38.7311C5.91149 37.0511 5.75149 35.3611 5.56149 33.6711C5.49149 33.1011 5.42149 32.5411 5.36149 31.9811C5.08149 29.7411 4.78149 27.5011 4.61149 25.2711C4.59149 24.9611 4.56149 24.6511 4.54149 24.3411C4.51149 23.8911 4.47149 23.4411 4.45149 22.9911C4.32149 21.3211 4.22149 19.6411 4.12149 17.9611C4.05149 16.6811 3.99149 15.4011 3.93149 14.1211C3.90149 13.4611 3.43149 11.1311 3.80149 10.6211C4.51149 9.62111 5.27149 8.67111 6.04149 7.79111C6.81149 6.89111 7.60149 6.07111 8.37149 5.35111C9.14149 4.64111 9.89149 4.02111 10.6115 3.53111L30.1615 3.47111L38.7615 3.45111L53.2715 3.41111H55.4815H55.9915C61.9215 3.39111 67.6915 3.38111 73.3215 3.37111C74.4715 3.36111 75.6115 3.36111 76.7415 3.36111C88.9115 3.33111 100.441 3.32111 111.621 3.32111H116.171C128.061 3.32111 139.961 3.34111 151.851 3.38111C154.681 3.39111 157.461 3.51111 160.271 3.67111C160.521 3.67111 160.781 3.69111 161.021 3.63111C161.281 3.56111 161.501 3.41111 161.751 3.30111C163.101 2.67111 164.631 3.41111 166.041 3.42111C167.321 3.42111 168.611 3.42111 169.901 3.42111C172.641 3.43111 175.391 3.44111 178.141 3.45111C183.531 3.45111 188.921 3.48111 194.311 3.49111C197.481 3.49111 200.661 3.51111 203.831 3.52111C204.931 3.52111 206.481 3.24111 207.541 3.53111L207.941 3.64111C210.041 5.12111 212.471 7.67111 214.581 10.6111H214.571Z" fill="url(#paint1_radial_2008_22)"/>
<g style="mix-blend-mode:multiply">
<path d="M86.7213 35.4111C78.9913 34.2611 71.2113 33.2411 63.4213 32.6111C55.5713 31.9711 47.8413 32.1011 40.0913 33.5911C28.8713 35.7611 17.5513 39.8711 6.12134 40.9511C6.15134 41.4211 6.20134 41.8711 6.27134 42.3111C14.6713 41.6811 23.1013 39.1911 31.1413 37.2311C36.8213 35.8411 42.4813 34.8411 48.2513 34.5211C52.6813 35.6911 57.1113 36.8911 61.5113 38.1811C63.7913 38.8511 66.0613 39.5411 68.3213 40.2611C70.3613 40.9011 73.0613 41.3211 74.9013 42.3911C69.2613 39.1011 62.5213 38.3011 56.4813 35.8211C56.2713 35.7311 56.0213 35.5911 56.0213 35.3611C56.0213 35.1811 56.1713 35.0411 56.3213 34.9311C56.4813 34.8011 56.6513 34.6811 56.8113 34.5511C63.5613 34.9111 70.2913 35.8111 76.9713 36.7111C99.7113 39.8011 122.141 44.6311 144.351 50.3511C145.221 50.1611 145.971 49.8011 146.891 49.7511C147.641 49.7211 148.371 49.9611 149.081 50.2011C151.661 51.0811 154.791 50.5811 157.521 50.6111C149.081 48.3311 140.601 46.1811 132.091 44.1911C117.101 40.6811 101.971 37.6611 86.7313 35.4011L86.7213 35.4111Z" fill="#F2E7E1"/>
<path d="M36.0714 27.9411C38.0415 27.3711 40.0014 26.7911 41.9715 26.2011C43.8414 25.6411 45.7514 25.1211 47.5014 24.2311C49.0815 23.4211 50.6115 22.3211 51.3615 20.6611C52.0514 19.1511 51.8615 17.3511 51.3214 15.8211C50.1814 12.5811 47.5014 9.84111 44.9214 7.67111C43.0014 6.07111 40.9214 4.69111 38.7514 3.45111L30.1515 3.47111C35.3815 6.00111 40.5215 9.12111 44.1615 13.6611C45.6615 15.5411 47.5315 18.5011 46.9015 21.0611C46.0615 21.9511 45.2715 22.9311 44.1215 23.2711C42.9015 23.6311 41.6014 23.1811 40.4314 22.6911C38.0215 21.6911 35.6814 20.5211 33.4214 19.2111C35.0514 20.2511 36.5914 21.4211 38.1314 22.5911C38.8514 23.1311 39.6514 23.9611 39.3114 24.7911C39.2314 24.9911 39.0914 25.1511 38.9214 25.2911C38.6614 25.3711 38.3915 25.4511 38.1215 25.5311C30.6715 27.7411 23.1515 29.8211 15.4515 31.0111C12.0915 31.5311 8.73145 31.8611 5.36145 31.9811C5.42145 32.5411 5.49145 33.1011 5.56145 33.6711C7.51145 33.6011 9.45145 33.4411 11.3714 33.2311C19.7514 32.2911 28.0015 30.2711 36.0915 27.9411H36.0714Z" fill="#F2E7E1"/>
<path d="M28.3814 18.3511C28.2914 16.7611 27.0414 15.3711 26.0314 14.2211C24.9814 13.0311 23.8114 11.9811 22.5314 11.0511C19.6314 8.97111 16.3114 7.58111 12.9114 6.55111C11.4014 6.10111 9.8814 5.7111 8.3514 5.3511C7.5814 6.0711 6.7914 6.89111 6.0214 7.79111C6.8514 8.00111 7.6814 8.22111 8.5014 8.45111C11.8514 9.4011 15.1214 10.6811 18.0214 12.6311C20.2714 14.1411 23.1614 16.4411 24.0914 19.1611C17.7314 21.5211 11.1314 22.6011 4.4314 22.9911C4.4514 23.4411 4.4914 23.8911 4.5214 24.3411C12.0614 24.1611 19.6714 22.2711 26.5914 19.8211C27.1614 19.6111 28.4214 19.1211 28.3814 18.3511Z" fill="#F2E7E1"/>
<path d="M174.951 24.9711C149.711 24.8211 124.651 21.7111 99.9314 16.7811C93.8614 15.5711 86.9214 14.7011 82.0814 10.4911C79.7514 8.4611 78.1414 5.9711 76.7314 3.3511C75.6014 3.3511 74.4614 3.3511 73.3114 3.3611C74.1214 6.05111 75.3514 8.6011 77.1014 10.6611C80.7114 14.9211 86.0214 16.5811 91.2814 17.7911C103.631 20.6511 116.151 22.8211 128.731 24.4211C129.991 24.5811 131.241 24.7411 132.501 24.8811C134.221 25.3011 135.951 25.7211 137.661 26.1611C144.181 27.8511 150.271 30.6411 156.691 32.7011C154.511 31.5711 152.301 30.5111 150.051 29.5311C149.901 29.4711 149.751 29.4011 149.601 29.3411C148.701 28.9511 144.191 26.4111 143.391 26.6511C143.961 26.4811 144.531 26.3111 145.111 26.1511C165.181 27.8211 185.391 27.8611 205.441 25.9011C208.231 25.6311 211.011 25.3211 213.781 24.9611C213.851 24.2411 213.901 23.5111 213.951 22.7811C213.321 22.8611 212.691 22.9411 212.061 23.0111C199.741 24.4311 187.341 25.0411 174.951 24.9811V24.9711Z" fill="#F2E7E1"/>
<path d="M212.881 11.4311C203.771 12.9311 194.581 14.0611 185.371 14.7911C176.131 15.5111 166.861 15.8911 157.591 15.8711C157.051 15.8711 156.511 15.8711 155.971 15.8711C155.771 15.8111 155.571 15.7611 155.381 15.6811C158.551 13.0011 161.741 10.3511 164.831 7.59111C160.881 10.0911 156.941 12.5811 152.991 15.0811C152.311 15.5111 151.511 15.9611 150.741 15.7011C150.561 15.7411 150.421 15.7711 150.291 15.8111C143.371 15.7011 136.421 15.3611 129.581 14.4311C127.041 14.0811 124.511 13.6111 122.031 12.9611C119.861 12.3911 117.691 11.7211 116.241 9.91111C114.531 7.79111 114.961 5.44111 116.181 3.32111H114.351C113.331 4.65111 112.661 6.19111 112.651 8.06111C112.651 10.0011 113.221 11.5911 114.841 12.7211C116.421 13.8311 118.421 14.3511 120.261 14.8511C129.491 17.3811 139.361 17.5511 148.861 17.8111C168.341 18.3511 187.841 17.1411 207.101 14.2411C209.571 13.8711 212.041 13.4711 214.501 13.0411C214.531 12.4111 214.551 11.7911 214.571 11.1611C214.011 11.2611 213.461 11.3511 212.901 11.4411L212.881 11.4311Z" fill="#F2E7E1"/>
<path d="M33.4115 19.2011C32.8215 18.8211 32.2215 18.4611 31.6115 18.1211C32.2015 18.4911 32.8115 18.8511 33.4115 19.2011Z" fill="#F2E7E1"/>
<path d="M44.0213 44.9711C37.3113 45.4211 30.7113 46.6411 24.1113 47.8811C19.8213 48.6911 15.4613 49.4211 11.1213 49.5211C11.6613 50.0011 12.2013 50.4211 12.7113 50.6911C12.7113 50.7011 12.7313 50.6911 12.7313 50.6911C14.6413 50.6011 16.5413 50.3811 18.4013 50.1011C24.9613 49.1111 31.4313 47.6711 38.0313 46.9811C48.8813 45.8411 59.5113 47.3511 69.8013 50.5611L79.5513 50.4911C74.2713 48.6511 68.8913 47.1211 63.3813 46.1211C56.9913 44.9611 50.5013 44.5411 44.0213 44.9711Z" fill="#F2E7E1"/>
<path d="M180.851 33.8211C184.391 36.3311 187.921 38.8411 191.461 41.3611C192.461 42.0711 193.531 42.9111 193.711 44.1111C193.771 44.5311 191.501 44.5911 189.221 44.5111C182.091 43.7411 174.961 42.8611 167.841 41.8611C159.861 40.7511 151.901 39.4911 143.951 38.1011C139.881 37.3911 135.811 36.6611 131.751 35.9111C129.741 35.5411 127.731 35.1511 125.721 34.8011C123.821 34.4711 121.951 33.8211 120.051 33.4211C104.331 30.0911 88.5914 26.4511 73.1413 22.0011C69.9114 21.0711 66.9213 19.7011 64.3913 17.4711C64.0913 17.2111 63.8014 16.9311 63.5214 16.6511C63.1014 15.5711 62.8013 14.4511 62.6313 13.3111C65.6213 13.6011 68.5514 14.4911 71.1814 15.9311C68.5614 14.1611 65.6313 12.8911 62.8813 11.3211C60.5613 9.99111 58.8314 8.30111 56.9114 6.53111C56.4114 5.49111 55.9314 4.44111 55.4714 3.39111H53.2614C53.7914 4.97111 54.3314 6.53111 54.9414 8.07111C56.9514 13.1611 59.7114 18.3111 64.4814 21.3211C67.5114 23.2311 71.1113 24.1711 74.5313 25.1411C94.7613 30.8811 115.821 32.9711 136.131 38.5811C136.341 38.6411 136.541 38.6911 136.751 38.7511C139.001 39.3811 141.241 40.0411 143.541 40.4711C148.401 41.3911 153.261 42.3711 158.121 43.1111C174.151 45.5611 190.271 47.4511 206.441 48.7211C206.881 48.7511 207.321 48.7911 207.761 48.8211C208.591 48.1111 209.371 47.3111 210.091 46.4411C207.291 46.2311 204.511 45.9911 201.711 45.7411C194.761 41.7611 187.801 37.7911 180.851 33.8111V33.8211Z" fill="#F2E7E1"/>
</g>
<path d="M213.931 14.0711C213.971 13.4211 214.001 12.7511 213.791 12.1311C213.551 11.4211 213.011 10.8511 212.491 10.3111C210.851 8.6211 209.211 6.26111 207.131 5.11111C205.121 4.01111 202.321 4.72111 200.091 4.70111C197.111 4.68111 194.131 4.65111 191.151 4.63111C185.061 4.58111 178.971 4.54111 172.881 4.50111C169.501 4.48111 166.181 4.4211 162.841 3.8211C162.601 3.7811 162.351 3.73111 162.111 3.76111C161.831 3.80111 161.571 3.93111 161.311 4.05111C159.681 4.79111 157.691 4.4111 155.921 4.4111C153.861 4.4111 151.801 4.39111 149.741 4.39111C145.621 4.38111 141.501 4.37111 137.371 4.36111C122.181 4.33111 106.991 4.3611 91.8014 4.4011C89.4114 4.4011 86.9814 4.3111 84.5914 4.4011C82.6614 4.4811 81.1314 5.28111 79.2914 5.64111C77.8314 5.93111 76.4214 5.08111 75.0114 4.63111C73.8114 4.25111 72.5514 4.16111 71.2914 4.18111C66.4414 4.24111 61.5014 4.56111 56.6314 4.79111C54.8414 4.87111 53.0614 4.60111 51.2514 4.61111C44.4814 4.66111 37.7214 4.72111 30.9614 4.79111C27.5714 4.83111 24.1814 4.8611 20.8014 4.9011C19.0414 4.9211 17.2814 4.94111 15.5214 4.96111C14.6314 4.96111 11.7114 4.52111 11.0414 5.02111C8.83137 6.66111 7.08138 8.83111 5.35138 10.9711C5.17138 11.2011 4.99137 11.4311 4.91137 11.7011C4.85137 11.9311 4.87137 12.1611 4.89137 12.3911C5.02137 14.3211 4.65137 15.8111 5.23137 17.6511C5.69137 19.1311 5.14137 20.0411 4.97137 21.4111C4.77137 23.0011 5.12137 24.7911 5.23137 26.3911C5.34137 28.1311 5.46137 29.8811 5.57137 31.6211C5.64137 32.7511 5.30137 35.5111 5.89137 36.4511C5.79137 36.2911 5.70138 36.1211 5.60138 35.9511C4.67138 27.6211 4.06137 19.1311 3.78137 10.6111C5.95137 7.59111 8.46137 4.98111 10.5914 3.52111L55.9814 3.39111C76.0814 3.33111 94.2714 3.30111 111.611 3.30111C125.021 3.30111 138.431 3.32111 151.841 3.36111C154.421 3.36111 156.971 3.42111 159.541 3.17111C159.861 3.14111 160.181 3.11111 160.491 3.01111C161.121 2.80111 161.631 2.3111 162.271 2.1611C162.871 2.0111 163.501 2.18111 164.091 2.34111C165.531 2.74111 167.021 3.3811 168.511 3.4111C169.911 3.4311 171.321 3.41111 172.721 3.42111C175.651 3.42111 178.591 3.44111 181.521 3.45111C186.961 3.47111 192.391 3.4811 197.831 3.5011C201.061 3.5011 204.291 3.52111 207.521 3.53111L207.921 3.64111C210.021 5.12111 212.451 7.67111 214.561 10.6111C214.491 12.7711 214.401 14.9311 214.291 17.0811C214.191 19.0611 213.771 21.0911 214.101 23.0611C214.161 23.3911 214.231 23.7211 214.261 24.0611C214.381 25.3911 213.651 26.6111 213.541 27.9311C213.391 29.6411 213.231 31.3611 213.051 33.0711C212.721 36.2611 211.911 39.6311 211.891 42.8211C211.961 33.2311 213.411 23.6311 213.921 14.0611L213.931 14.0711Z" fill="#FA8C37"/>
<g style="mix-blend-mode:screen">
<path d="M112.701 43.0711C102.821 40.8311 93.7014 38.9111 84.4214 37.6011C75.2014 36.2911 66.0514 34.8111 56.7314 34.3811C74.8814 37.8911 94.4614 40.0811 112.701 43.0811V43.0711Z" fill="#3B1A09"/>
</g>
<g style="mix-blend-mode:screen">
<path d="M200.701 26.1811C183.701 27.5311 165.891 28.6411 148.951 26.1811C152.611 27.9211 156.811 28.1911 160.861 28.4411C173.991 29.2511 187.741 28.4811 200.701 26.1811Z" fill="#3B1A09"/>
</g>
<g style="mix-blend-mode:screen">
<path d="M144.441 17.5011C135.071 18.0811 125.591 16.6811 116.781 13.4411C118.281 15.0211 120.801 15.9511 122.901 16.5211C129.621 18.3611 137.532 18.5011 144.432 17.5011H144.441Z" fill="#3B1A09"/>
</g>
<g style="mix-blend-mode:screen">
<path d="M48.4114 24.0711C43.8314 26.4711 38.3714 27.5511 33.4014 28.9111C28.0314 30.3811 22.6014 31.6711 17.0814 32.3911C27.9614 32.1811 38.8614 29.2811 48.4114 24.0711Z" fill="#3B1A09"/>
</g>
<g style="mix-blend-mode:screen">
<path d="M145.632 40.7911C141.501 40.5811 137.511 39.2711 133.541 38.1211C125.671 35.8411 117.641 34.1511 109.531 33.0411C115.941 34.7511 122.651 36.3911 129.061 38.1111C131.661 38.8111 134.271 39.5011 136.911 40.0111C139.751 40.5611 142.751 40.6811 145.641 40.7811L145.632 40.7911Z" fill="#3B1A09"/>
</g>
<g style="mix-blend-mode:screen">
<path d="M209.011 40.0011C208.691 39.6811 208.351 39.3811 208.001 39.1111C206.591 38.0111 204.941 37.2511 203.201 36.9111C203.121 36.8511 202.971 36.8311 202.871 36.8411C202.511 36.8711 202.151 37.0211 201.861 37.2411C200.421 38.3511 199.201 39.9511 198.321 41.5611C198.101 41.9611 197.931 42.3011 198.251 42.6911C198.521 43.0411 198.891 43.2611 199.271 43.4811C200.111 43.9911 201.001 44.4311 201.901 44.8011C202.291 44.9611 202.801 44.7811 203.161 44.6011C203.981 44.2011 204.731 43.1711 205.261 42.4511C205.311 42.3811 205.361 42.3111 205.361 42.2311C205.361 42.1211 205.281 42.0311 205.201 41.9611C205.031 41.7911 204.851 41.6211 204.681 41.4511C204.641 41.4111 204.591 41.3611 204.531 41.3611C204.461 41.3611 204.391 41.4111 204.341 41.4611C203.671 42.1211 203.001 42.7811 202.331 43.4411C201.971 43.1911 201.611 42.9811 201.231 42.7611C200.881 42.5611 200.491 42.3711 200.191 42.0911C200.041 41.9511 199.911 41.7711 199.951 41.5611C199.991 41.3711 200.151 41.1711 200.241 41.0111C200.661 40.3111 201.101 39.6311 201.591 38.9811C201.941 38.5211 202.331 38.1011 202.711 37.6711C204.121 38.0211 205.451 38.6211 206.631 39.4911C206.631 39.5611 207.131 39.8911 207.211 39.9511C207.411 40.1211 207.601 40.3011 207.791 40.4811C207.981 40.6711 208.201 40.8811 208.361 41.1011C208.441 41.2211 208.691 41.5411 208.691 41.6711C208.691 41.8711 208.301 42.3111 208.171 42.4611C207.881 42.7811 207.591 43.1011 207.301 43.4211C206.711 44.0511 206.111 44.6711 205.491 45.2711C205.241 45.5111 204.991 45.7611 204.751 46.0111C204.221 46.5611 203.731 47.1511 203.121 47.6111C202.451 48.1111 201.791 48.2511 200.981 48.2611C200.091 48.2811 199.191 48.2611 198.301 48.2611C194.761 48.2611 191.221 48.2311 187.681 48.2111C184.141 48.1911 180.601 48.1711 177.061 48.1611C173.541 48.1511 170.011 48.1411 166.491 48.1511C154.101 48.1711 141.721 48.2011 129.331 48.2211C104.731 48.2711 80.1314 48.2911 55.5314 48.3511C52.9114 48.3511 50.2914 48.3511 47.6814 48.3511C41.5214 48.3411 35.3614 48.3011 29.1914 48.3211C26.1114 48.3311 23.0314 48.3511 19.9514 48.4011C19.1814 48.4111 18.4114 48.4211 17.6414 48.4411C17.0014 48.4511 16.3014 48.5711 15.6714 48.5311C15.1114 48.4911 14.4614 48.0311 13.9914 47.7411C13.4414 47.4111 12.9114 47.0311 12.4214 46.6111C12.0714 46.3011 11.7414 45.9611 11.4514 45.5811C11.3714 45.4711 11.2914 45.3711 11.2114 45.2711C10.7614 41.7011 10.0814 32.9111 9.62144 29.3411C9.39144 27.5711 9.11145 25.8011 8.85145 24.0311C8.73145 23.1811 8.60144 22.3311 8.48144 21.4811C8.34144 20.5111 8.29144 19.4611 7.84144 18.5811C7.77144 18.4411 7.31144 18.6311 7.29144 18.7511C7.00144 20.4311 7.49145 22.3311 7.69145 24.0011C7.91145 25.8611 8.11145 27.7211 8.35145 29.5811C8.64145 31.8111 9.18145 39.2611 9.49145 41.4911C9.65145 42.6311 9.81144 43.7811 9.97144 44.9211C10.1014 45.8311 10.6514 46.4811 11.2714 47.1211C11.9114 47.7811 12.7114 48.2511 13.4614 48.7911C14.0314 49.2011 14.6414 49.1611 15.3114 49.1711C16.0814 49.1811 16.8514 49.2011 17.6214 49.2111C19.1614 49.2311 20.7014 49.2511 22.2314 49.2511C25.3114 49.2711 28.3814 49.2611 31.4614 49.2511C37.5814 49.2211 43.7114 49.1611 49.8314 49.1411C62.2114 49.1211 74.5814 49.1011 86.9614 49.0911C111.571 49.0611 136.191 48.9711 160.801 48.9211C174.761 48.8911 188.711 48.7011 202.671 48.6511C203.211 48.6511 203.841 48.0611 204.251 47.7511C204.771 47.3511 205.261 46.9211 205.731 46.4611C206.421 45.7811 207.051 45.0411 207.651 44.2711C208.231 43.5311 208.861 42.8511 209.481 42.1311C209.551 42.0511 209.531 42.0111 209.481 41.9711C209.491 41.9611 209.511 41.9411 209.521 41.9311C209.751 41.6811 209.921 41.3611 209.821 41.0111C209.711 40.5911 209.321 40.2411 209.031 39.9511L209.011 40.0011Z" fill="#3B1A09"/>
<path d="M209.621 8.95109C209.131 8.29109 208.441 7.82109 207.821 7.28109C207.341 6.87109 206.721 6.91109 206.061 6.90109C205.291 6.89109 204.531 6.87109 203.761 6.86109C202.231 6.84109 200.691 6.82109 199.151 6.82109C196.081 6.80109 193.001 6.81109 189.911 6.82109C183.781 6.85109 173.581 6.90109 167.461 6.92109C155.081 6.94109 142.711 6.96109 130.331 6.97109C105.721 7.00109 81.1014 7.09109 56.4914 7.14109C42.5314 7.17109 28.5814 7.36109 14.6214 7.41109C14.0814 7.41109 13.4514 8.00109 13.0414 8.31109C12.5214 8.71109 12.0314 9.14109 11.5614 9.60109C10.8714 10.2811 10.2414 11.0211 9.64142 11.7911C9.06142 12.5311 8.43142 13.2111 7.81142 13.9311C7.74142 14.0111 7.76142 14.0511 7.81142 14.0911C7.80142 14.1011 7.78142 14.1211 7.77142 14.1311C7.54142 14.3811 7.37142 14.7011 7.47142 15.0511C7.58142 15.4711 7.97142 15.8211 8.26142 16.1111C8.58142 16.4311 8.92142 16.7311 9.27142 17.0011C10.6814 18.1011 12.3314 18.8611 14.0714 19.2011C14.1514 19.2611 14.3014 19.2811 14.4014 19.2711C14.7614 19.2411 15.1214 19.0911 15.4114 18.8711C16.8514 17.7611 18.0714 16.1611 18.9514 14.5511C19.1714 14.1511 19.3414 13.8211 19.0214 13.4211C18.7514 13.0711 18.3814 12.8511 18.0014 12.6311C17.1614 12.1211 16.2714 11.6811 15.3714 11.3111C14.9814 11.1511 14.4714 11.3311 14.1114 11.5111C13.2914 11.9111 12.5414 12.9411 12.0114 13.6611C11.9614 13.7311 11.9114 13.8011 11.9114 13.8811C11.9114 13.9911 11.9914 14.0811 12.0714 14.1511C12.2414 14.3211 12.4214 14.4911 12.5914 14.6611C12.6314 14.7011 12.6814 14.7511 12.7414 14.7511C12.8214 14.7511 12.8814 14.7011 12.9314 14.6511C13.6014 13.9911 14.2714 13.3311 14.9414 12.6711C15.3014 12.9211 15.6614 13.1311 16.0414 13.3511C16.3914 13.5511 16.7814 13.7411 17.0814 14.0211C17.2314 14.1611 17.3614 14.3411 17.3214 14.5511C17.2814 14.7411 17.1214 14.9411 17.0314 15.1011C16.6114 15.8011 16.1714 16.4811 15.6814 17.1311C15.3314 17.5911 14.9414 18.0111 14.5614 18.4411C13.1514 18.0911 11.8214 17.4911 10.6414 16.6211C10.6414 16.5511 10.1414 16.2211 10.0614 16.1611C9.86142 15.9911 9.67142 15.8111 9.48142 15.6311C9.29142 15.4411 9.07142 15.2311 8.91142 15.0111C8.83142 14.8911 8.58142 14.5711 8.58142 14.4411C8.58142 14.2411 8.97142 13.8011 9.10142 13.6511C9.39142 13.3311 9.68142 13.0111 9.97142 12.6911C10.5614 12.0611 11.1614 11.4411 11.7814 10.8411C12.0314 10.6011 12.2814 10.3511 12.5214 10.1011C13.0514 9.55109 13.5414 8.96109 14.1514 8.50109C14.8214 8.00109 15.4814 7.86109 16.2914 7.85109C17.1814 7.83109 18.0814 7.85109 18.9714 7.85109C22.5114 7.85109 26.0514 7.88109 29.5914 7.90109C33.1314 7.92109 36.6714 7.94109 40.2114 7.95109C43.7314 7.96109 47.2614 7.97109 50.7814 7.96109C63.1714 7.94109 75.5514 7.91109 87.9414 7.89109C112.541 7.84109 137.141 7.82109 161.741 7.76109C164.361 7.76109 166.981 7.76109 169.591 7.76109C175.751 7.77109 185.771 7.82109 191.941 7.79109C195.021 7.78109 198.111 7.76109 201.201 7.71109C201.971 7.70109 202.751 7.69109 203.521 7.67109C204.161 7.66109 204.891 7.54109 205.511 7.58109C206.061 7.62109 206.601 8.08109 207.011 8.37109C207.491 8.70109 207.921 9.08109 208.311 9.50109C208.591 9.81109 208.841 10.1511 209.041 10.5311C209.101 10.6411 209.151 10.7411 209.211 10.8411C208.841 14.4111 208.451 17.9711 208.091 21.5411C207.911 23.3111 207.771 30.2111 207.621 31.9811C207.551 32.8311 207.471 33.6811 207.401 34.5311C207.321 35.5011 207.121 36.5511 207.371 37.4311C207.411 37.5711 207.911 37.3811 207.961 37.2611C208.641 35.5811 208.591 33.6911 208.781 32.0111C208.991 30.1511 209.241 23.1611 209.421 21.3011C209.651 19.0711 209.851 16.8411 210.061 14.6211C210.171 13.4811 210.271 12.3311 210.381 11.1911C210.461 10.2811 210.061 9.63109 209.591 8.99109L209.621 8.95109Z" fill="#3B1A09"/>
</g>
<path d="M208.932 39.4811C208.611 39.1611 208.271 38.8611 207.921 38.5911C206.511 37.4911 204.861 36.7311 203.121 36.3911C203.041 36.3311 202.891 36.3111 202.791 36.3211C202.431 36.3511 202.071 36.5011 201.781 36.7211C200.341 37.8311 199.122 39.4311 198.242 41.0411C198.021 41.4411 197.851 41.7711 198.171 42.1711C198.441 42.5211 198.811 42.7411 199.191 42.9611C200.031 43.4711 200.922 43.9111 201.822 44.2811C202.212 44.4411 202.721 44.2611 203.081 44.0811C203.902 43.6811 204.652 42.6511 205.182 41.9311C205.232 41.8611 205.281 41.7911 205.281 41.7111C205.281 41.6011 205.201 41.5111 205.121 41.4411C204.951 41.2711 204.771 41.1011 204.602 40.9311C204.562 40.8911 204.511 40.8411 204.451 40.8411C204.371 40.8411 204.311 40.8911 204.261 40.9411C203.591 41.6011 202.921 42.2611 202.251 42.9211C201.891 42.6711 201.531 42.4611 201.151 42.2411C200.801 42.0411 200.411 41.8511 200.111 41.5711C199.962 41.4311 199.831 41.2511 199.871 41.0411C199.911 40.8511 200.072 40.6511 200.161 40.4911C200.581 39.7911 201.021 39.1111 201.511 38.4611C201.861 38.0011 202.251 37.5811 202.632 37.1511C204.042 37.5011 205.372 38.1011 206.551 38.9711C206.551 39.0411 207.051 39.3711 207.132 39.4311C207.331 39.6011 207.521 39.7811 207.712 39.9611C207.902 40.1511 208.121 40.3611 208.281 40.5811C208.361 40.7011 208.611 41.0211 208.611 41.1511C208.611 41.3511 208.221 41.7911 208.091 41.9411C207.801 42.2611 207.511 42.5811 207.221 42.9011C206.632 43.5311 206.031 44.1511 205.411 44.7511C205.161 44.9911 204.911 45.2411 204.671 45.4911C204.141 46.0411 203.651 46.6311 203.041 47.0911C202.371 47.5911 201.711 47.7311 200.901 47.7411C200.011 47.7611 199.111 47.7411 198.221 47.7411C194.682 47.7411 191.141 47.7111 187.602 47.6911C184.062 47.6711 180.521 47.6511 176.981 47.6411C173.461 47.6311 169.932 47.6211 166.411 47.6311C154.021 47.6511 141.641 47.6811 129.251 47.7011C104.651 47.7511 80.0515 47.7711 55.4515 47.8311C52.8315 47.8311 50.2115 47.8311 47.6015 47.8311C41.4415 47.8211 35.2815 47.7811 29.1115 47.8011C26.0315 47.8111 22.9515 47.8311 19.8715 47.8811C19.1015 47.8911 18.3315 47.9011 17.5615 47.9211C16.9215 47.9311 16.2215 48.0511 15.5915 48.0111C15.0315 47.9711 14.3815 47.5111 13.9115 47.2211C13.3615 46.8911 12.8315 46.5111 12.3415 46.0911C11.9915 45.7811 11.6615 45.4411 11.3715 45.0611C11.2915 44.9511 11.2115 44.8511 11.1315 44.7511C10.6815 41.1811 10.0015 32.3911 9.54149 28.8211C9.31149 27.0511 9.03149 25.2811 8.77149 23.5111C8.65149 22.6611 8.52149 21.8111 8.40149 20.9611C8.26149 19.9911 8.21149 18.9411 7.76149 18.0611C7.69149 17.9211 7.23149 18.1111 7.21149 18.2311C6.92149 19.9111 7.41149 21.8111 7.61149 23.4811C7.83149 25.3411 8.03149 27.2011 8.27149 29.0611C8.56149 31.2911 9.10149 38.7411 9.41149 40.9711C9.57149 42.1111 9.73149 43.2611 9.89149 44.4011C10.0215 45.3111 10.5715 45.9611 11.1915 46.6011C11.8315 47.2611 12.6315 47.7311 13.3815 48.2711C13.9515 48.6811 14.5615 48.6411 15.2315 48.6511C16.0015 48.6611 16.7715 48.6811 17.5415 48.6911C19.0815 48.7111 20.6215 48.7311 22.1515 48.7311C25.2315 48.7511 28.3015 48.7411 31.3815 48.7311C37.5015 48.7011 43.6315 48.6411 49.7515 48.6211C62.1315 48.6011 74.5015 48.5811 86.8815 48.5711C111.491 48.5411 136.111 48.4511 160.721 48.4011C174.682 48.3711 188.631 48.1811 202.591 48.1311C203.131 48.1311 203.761 47.5411 204.171 47.2311C204.691 46.8311 205.181 46.4011 205.651 45.9411C206.341 45.2611 206.971 44.5211 207.572 43.7511C208.152 43.0111 208.781 42.3311 209.401 41.6111C209.471 41.5311 209.451 41.4911 209.401 41.4511C209.411 41.4411 209.432 41.4211 209.441 41.4111C209.671 41.1611 209.842 40.8411 209.742 40.4911C209.632 40.0711 209.241 39.7211 208.951 39.4311L208.932 39.4811Z" fill="#903145"/>
<path d="M209.531 8.4311C209.041 7.7711 208.351 7.3011 207.731 6.7611C207.251 6.3511 206.631 6.3911 205.971 6.3811C205.201 6.3711 204.441 6.3511 203.671 6.3411C202.141 6.3211 200.601 6.3011 199.061 6.3011C195.991 6.2811 192.911 6.2911 189.821 6.3011C183.691 6.3311 173.491 6.3811 167.371 6.4011C154.991 6.4211 142.621 6.4411 130.241 6.4511C105.631 6.4811 81.0115 6.5711 56.4015 6.6211C42.4415 6.6511 28.4915 6.8411 14.5315 6.8911C13.9915 6.8911 13.3615 7.4811 12.9515 7.7911C12.4315 8.1911 11.9415 8.6211 11.4715 9.0811C10.7815 9.7611 10.1515 10.5011 9.55145 11.2711C8.97145 12.0111 8.34145 12.6911 7.72145 13.4111C7.65145 13.4911 7.67145 13.5311 7.72145 13.5711C7.71145 13.5811 7.69145 13.6011 7.68145 13.6111C7.45145 13.8611 7.28145 14.1811 7.38145 14.5311C7.49145 14.9511 7.88145 15.3011 8.17145 15.5911C8.49145 15.9111 8.83145 16.2111 9.18145 16.4811C10.5915 17.5811 12.2515 18.3411 13.9815 18.6811C14.0615 18.7411 14.2115 18.7611 14.3115 18.7511C14.6715 18.7211 15.0315 18.5711 15.3215 18.3511C16.7615 17.2411 17.9815 15.6411 18.8615 14.0311C19.0815 13.6311 19.2515 13.2911 18.9315 12.9011C18.6615 12.5511 18.2915 12.3311 17.9115 12.1111C17.0715 11.6011 16.1815 11.1611 15.2815 10.7911C14.8915 10.6311 14.3815 10.8111 14.0215 10.9911C13.2015 11.3911 12.4515 12.4211 11.9215 13.1411C11.8715 13.2111 11.8215 13.2811 11.8215 13.3611C11.8215 13.4711 11.9015 13.5611 11.9815 13.6311C12.1515 13.8011 12.3315 13.9711 12.5015 14.1411C12.5415 14.1811 12.5915 14.2311 12.6515 14.2311C12.7315 14.2311 12.7915 14.1811 12.8415 14.1311C13.5115 13.4711 14.1815 12.8111 14.8515 12.1511C15.2115 12.4011 15.5715 12.6111 15.9515 12.8311C16.3015 13.0311 16.6915 13.2211 16.9915 13.5011C17.1415 13.6411 17.2715 13.8211 17.2315 14.0311C17.1915 14.2211 17.0315 14.4211 16.9415 14.5811C16.5215 15.2811 16.0815 15.9611 15.5915 16.6111C15.2415 17.0711 14.8515 17.4911 14.4715 17.9211C13.0615 17.5711 11.7315 16.9711 10.5515 16.1011C10.5515 16.0311 10.0515 15.7011 9.97145 15.6411C9.77145 15.4711 9.58145 15.2911 9.39145 15.1111C9.20145 14.9211 8.98145 14.7111 8.82145 14.4911C8.74145 14.3711 8.49145 14.0511 8.49145 13.9211C8.49145 13.7211 8.88145 13.2811 9.01145 13.1311C9.30145 12.8111 9.59145 12.4911 9.88145 12.1711C10.4715 11.5411 11.0715 10.9211 11.6915 10.3211C11.9415 10.0811 12.1915 9.8311 12.4315 9.5811C12.9615 9.0311 13.4515 8.4411 14.0615 7.9811C14.7315 7.4811 15.3915 7.3411 16.2015 7.3311C17.0915 7.3111 17.9915 7.3311 18.8815 7.3311C22.4215 7.3311 25.9615 7.3611 29.5015 7.3811C33.0415 7.4011 36.5815 7.4211 40.1215 7.4311C43.6415 7.4411 47.1715 7.4511 50.6915 7.4411C63.0815 7.4211 75.4614 7.3911 87.8514 7.3711C112.451 7.3211 137.051 7.3011 161.651 7.2411C164.271 7.2411 166.891 7.2411 169.501 7.2411C175.661 7.2511 185.681 7.3011 191.851 7.2711C194.931 7.2611 198.021 7.2411 201.111 7.1911C201.881 7.1811 202.661 7.1711 203.431 7.1511C204.071 7.1411 204.801 7.0211 205.421 7.0611C205.971 7.1011 206.511 7.5611 206.921 7.8511C207.401 8.1811 207.831 8.5611 208.221 8.9811C208.501 9.2911 208.751 9.6311 208.951 10.0111C209.011 10.1211 209.061 10.2211 209.121 10.3211C208.741 13.8911 208.361 17.4511 208.001 21.0211C207.821 22.7911 207.681 29.6911 207.531 31.4611C207.461 32.3111 207.381 33.1611 207.311 34.0111C207.231 34.9811 207.031 36.0311 207.281 36.9011C207.321 37.0411 207.821 36.8511 207.871 36.7311C208.551 35.0511 208.501 33.1611 208.691 31.4811C208.901 29.6211 209.151 22.6311 209.331 20.7711C209.561 18.5411 209.761 16.3111 209.971 14.0911C210.081 12.9511 210.181 11.8011 210.291 10.6611C210.371 9.7511 209.971 9.1011 209.501 8.4611L209.531 8.4311Z" fill="#903145"/>
<path d="M67.0031 16.7531H75.9631L79.8351 27.6971L83.1951 16.7531H92.3471V20.3371H89.7551V32.0171H92.3471V35.6011H83.5791V32.0171H85.6271V19.5371L84.3791 23.8571L81.1791 33.3291H78.4911L74.6511 23.3451L73.4351 19.8251V32.0171H75.5471V35.6011H67.0031V32.0171H69.5951V20.3371H67.0031V16.7531ZM108.896 33.8091C107.915 34.6411 106.891 35.2491 105.824 35.6331C104.779 36.0384 103.744 36.2411 102.72 36.2411C101.056 36.2411 99.6057 35.9104 98.3683 35.2491C97.131 34.5664 96.171 33.6384 95.4883 32.4651C94.827 31.2704 94.4963 29.9158 94.4963 28.4011C94.4963 26.8011 94.8163 25.4038 95.4563 24.2091C96.0963 23.0144 96.9817 22.0864 98.1123 21.4251C99.243 20.7638 100.555 20.4331 102.048 20.4331C103.606 20.4331 104.95 20.7424 106.08 21.3611C107.232 21.9798 108.118 22.8438 108.736 23.9531C109.376 25.0411 109.696 26.3318 109.696 27.8251C109.696 28.1024 109.675 28.4224 109.632 28.7851C109.611 29.1478 109.568 29.4891 109.504 29.8091H98.3683C98.4537 30.5344 98.699 31.1424 99.1043 31.6331C99.5097 32.1238 100.022 32.4864 100.64 32.7211C101.28 32.9558 101.974 33.0731 102.72 33.0731C103.616 33.0731 104.48 32.9238 105.312 32.6251C106.144 32.3264 106.902 31.9104 107.584 31.3771L108.896 33.8091ZM105.664 27.1211C105.664 26.1184 105.355 25.3078 104.736 24.6891C104.118 24.0491 103.264 23.7291 102.176 23.7291C101.195 23.7291 100.342 24.0491 99.6163 24.6891C98.891 25.3078 98.507 26.1184 98.4643 27.1211H105.664ZM111.912 35.6011V32.3691H114.632V25.1051L111.56 24.0491L112.616 20.7851L117.128 22.3211C117.981 21.7451 118.834 21.2864 119.688 20.9451C120.541 20.6038 121.629 20.4331 122.952 20.4331C124.36 20.4331 125.469 20.7104 126.28 21.2651C127.09 21.8198 127.666 22.5664 128.008 23.5051C128.37 24.4438 128.552 25.4784 128.552 26.6091V32.3691H131.208V35.6011H123.208V32.3691H124.52V27.0891C124.52 26.1931 124.338 25.4571 123.976 24.8811C123.613 24.3051 122.93 24.0171 121.928 24.0171C121.288 24.0171 120.669 24.1344 120.072 24.3691C119.496 24.5824 119.026 24.8278 118.664 25.1051V32.3691H119.944V35.6011H111.912ZM145.936 34.8971C145.211 35.3024 144.422 35.6224 143.568 35.8571C142.715 36.1131 141.915 36.2411 141.168 36.2411C138.907 36.2411 137.254 35.7504 136.208 34.7691C135.163 33.7878 134.64 32.2411 134.64 30.1291V24.3051H132.208V21.0731H138.704V29.5851C138.704 30.6518 138.907 31.4304 139.312 31.9211C139.718 32.3904 140.379 32.6251 141.296 32.6251C141.723 32.6251 142.235 32.5504 142.832 32.4011C143.451 32.2518 144.027 32.0704 144.56 31.8571V24.3051H142.128V21.0731H148.624V31.8251L151.408 32.7851L150.288 36.3051L145.936 34.8971Z" fill="white"/>
<defs>
<linearGradient id="paint0_linear_2008_22" x1="109.001" y1="-26.2889" x2="109.461" y2="71.2511" gradientUnits="userSpaceOnUse">
<stop stop-color="#D1590F"/>
<stop offset="0.11" stop-color="#C14E19"/>
<stop offset="0.33" stop-color="#9A3336"/>
<stop offset="0.63" stop-color="#5B0864"/>
<stop offset="0.64" stop-color="#590766"/>
<stop offset="0.74" stop-color="#421967"/>
<stop offset="1" stop-color="#0A4A6B"/>
</linearGradient>
<radialGradient id="paint1_radial_2008_22" cx="0" cy="0" r="1" gradientUnits="userSpaceOnUse" gradientTransform="translate(130.181 -14.2489) scale(566.96 566.96)">
<stop stop-color="#E06E16"/>
<stop offset="1" stop-color="#590766"/>
</radialGradient>
</defs>
</svg>
