<svg width="288" height="79" viewBox="0 0 288 79" fill="none" xmlns="http://www.w3.org/2000/svg">
<g clip-path="url(#clip0_20_2811)">
<path d="M274.23 63.25C278.78 63.19 283.34 63.58 287.82 64.4C285.4 58.34 281.18 53.17 276.24 48.91C274.15 47.11 271.85 45.52 269.26 44.57C268.77 44.39 268.28 44.25 267.79 44.12C268.79 42.82 269.91 41.61 271.14 40.55C273.72 38.3 276.03 35.74 278 32.94C278.08 32.84 278.15 32.74 278.22 32.63C278.72 31.9 270.56 28.72 269.8 28.54C266.75 27.82 264.04 28.1 261.01 28.86C260.15 29.08 259.29 29.34 258.44 29.64C257.57 29.95 256.72 30.3 255.89 30.69C255.94 29.56 255.99 28.42 256.02 27.27C256.04 26.62 255.85 25.97 255.47 25.43C253.03 22.03 249.92 18.78 247.05 16.97C246.62 16.85 245.96 16.67 245.53 16.55L189.42 16.39C187.96 16.39 186.28 16.5 185.46 17.93C185.37 18.09 185.23 18.29 185.05 18.25C184.96 18.23 184.89 18.14 184.84 18.06C184.1 17.01 183.98 16.55 182.75 16.37C181.62 16.21 180.35 16.37 179.21 16.37C176.85 16.37 174.5 16.37 172.14 16.36C167.32 16.36 162.5 16.35 157.68 16.35C136.36 16.34 115.05 16.43 93.73 16.43C91.9 16.43 90.06 16.44 88.23 16.45C86.18 16.45 84.13 16.45 82.09 16.47C81.21 16.47 80.51 16.5 79.69 16.78C79.01 17.01 78.45 17.61 77.7 17.28C74.75 15.98 71.1 16.51 67.97 16.51C64.7 16.51 61.43 16.53 58.16 16.54C57.67 16.54 57.18 16.54 56.68 16.54C55.66 14.21 54.36 12 52.8 9.99C52.21 9.22 51.58 8.49 50.93 7.78C48.63 5.32 46.33 3.48 43.15 2.35C42.36 2.06 33.11 0.179998 33.13 1.13C33.13 1.26 33.13 1.4 33.15 1.53C33.3 5.22 33.9 8.88 34.92 12.44C35.43 14.19 35.75 16.02 35.88 17.85C33.51 16.24 30.93 15.05 28.07 14.54C25.14 14.03 22.13 14.27 19.21 14.81C12.29 16.11 5.56003 18.65 0.0300293 23C4.65003 24.65 9.12003 26.76 13.33 29.28C15.6 27.38 17.89 26.76 20.77 26.08C18.96 27.7 17.3 29.5 15.85 31.44C17.21 32.17 18.6 32.83 20.02 33.41C21.59 34.06 23.2 34.62 24.83 35.12C24.12 35.69 23.46 36.34 22.85 37.01C22.78 37.09 22.7 37.17 22.63 37.25C18.52 41.8 15.33 47.77 14.77 53.95C15.49 53.72 16.22 53.49 16.96 53.28C21.68 51.91 26.7 51.06 31.56 51.5C32.17 51.55 35.53 51.71 39.18 51.86C39.32 52.65 39.45 53.43 39.62 54.22C39.66 54.4 39.7 54.58 39.82 54.72C39.97 54.89 40.2 54.95 40.42 55C41.09 55.15 41.76 55.31 42.42 55.46C40.72 55.69 39.62 56.23 40.11 58.11C40.79 60.71 41.52 63.3 43.31 65.35C45.19 67.5 47.46 69.29 49.99 70.62C50.42 70.84 50.9 70.95 51.39 70.95L95.73 70.61C106.58 70.53 117.43 70.44 128.28 70.36C137.83 70.29 147.38 70.28 156.93 70.31C161.77 70.33 166.6 70.35 171.44 70.38C173.92 70.4 176.39 70.41 178.87 70.43C179.76 70.43 181.08 70.72 181.91 70.55C182.72 70.38 183.29 69.6 184.12 69.51C184.45 69.47 184.78 69.57 185.09 69.66C189.32 70.91 193.73 70.56 198.15 70.6C202.64 70.64 207.14 70.71 211.63 70.71C215.81 70.74 219.99 70.77 224.17 70.81C227.05 70.83 229.93 70.93 232.81 70.85C235.81 70.77 238.83 70.71 241.83 70.94C242.56 71 243.27 70.82 243.96 70.53C248.47 71.49 254.5 72.71 255.32 72.84C259.79 73.54 264.12 75.44 268.06 77.73C268.68 78.08 269.28 78.45 269.88 78.82C270.67 73.69 269.5 68.23 267.29 63.52C268.59 63.69 269.89 63.8 271.21 63.84C270.95 61.6 270.46 59.39 269.76 57.25C271.76 59.13 273.3 60.69 274.24 63.28L274.23 63.25Z" fill="#2E82A6"/>
<path d="M57.99 24.58C57.01 26.67 55.91 28.72 54.7 30.68C54.35 31.24 53.98 31.81 53.41 32.14C52.28 32.82 50.84 32.35 49.63 31.84C45.76 30.21 42.02 28.3 38.44 26.11C37.24 25.38 36.02 24.53 35.53 23.21C36.25 19.38 35.97 15.31 34.89 11.57C33.87 8.02 33.27 4.35 33.12 0.660003C33.11 0.520003 33.11 0.390003 33.1 0.260003C33.08 -0.689997 42.33 1.19 43.12 1.48C46.3 2.61 48.6 4.45 50.9 6.91C51.55 7.62 52.18 8.35 52.77 9.12C55.44 12.57 57.38 16.58 58.38 20.83C58.68 22.08 58.52 23.4 57.98 24.57L57.99 24.58Z" fill="url(#paint0_linear_20_2811)"/>
<path d="M49.58 51.31C49.55 51.46 32.97 50.77 31.53 50.64C26.67 50.21 21.65 51.06 16.93 52.42C16.19 52.63 15.46 52.86 14.74 53.09C15.3 46.92 18.49 40.95 22.6 36.4C22.67 36.32 22.75 36.24 22.82 36.16C23.81 35.07 24.9 34.03 26.19 33.3C29.11 31.63 32.71 31.73 36.07 32.16C41.64 32.86 46.02 32.65 47.75 38.69C48.91 42.78 49.54 47.05 49.59 51.31H49.58Z" fill="url(#paint1_linear_20_2811)"/>
<path d="M46.51 37.14C46.37 37.54 46.2 37.96 45.82 38.16C45.51 38.31 45.16 38.26 44.83 38.21C36.4 37.03 27.8 35.8 19.99 32.55C18.57 31.97 17.18 31.31 15.82 30.58C17.27 28.64 18.93 26.83 20.74 25.22C17.86 25.9 15.57 26.52 13.3 28.42C9.09 25.9 4.62 23.8 0 22.14C5.53 17.79 12.26 15.25 19.18 13.95C22.1 13.41 25.11 13.16 28.04 13.68C31.62 14.32 34.77 16.02 37.61 18.28C41.05 21.01 44.02 24.55 46.73 28.01C48.58 30.37 47.46 34.31 46.5 37.15L46.51 37.14Z" fill="url(#paint2_linear_20_2811)"/>
<path d="M52.78 9.11999C52.78 9.11999 52.76 9.18999 52.74 9.21999C52.54 9.56999 52.15 9.76999 51.77 9.93999C50.11 10.71 48.45 11.48 46.8 12.26C45.12 9.68999 43.26 7.24999 41.23 4.95999C42.65 7.30999 43.57 9.96999 43.9 12.69C43.93 12.93 43.94 13.19 43.81 13.39C43.66 13.61 43.37 13.68 43.12 13.73C41.26 14.11 39.4 14.49 37.54 14.86C35.71 11.06 34.38 7.01999 33.6 2.86999C33.47 2.15999 33.3 1.42999 33.12 0.679992C33.11 0.539992 33.11 0.409992 33.1 0.279992C33.08 -0.670008 42.33 1.20999 43.12 1.49999C46.3 2.62999 48.6 4.46999 50.9 6.92999C51.55 7.63999 52.18 8.36999 52.77 9.13999L52.78 9.11999Z" fill="url(#paint3_linear_20_2811)"/>
<path d="M37.61 18.27C37.37 19.89 35.5 21.87 33.94 22.15C33.28 22.27 32.6 22.17 31.95 22.06C27.09 21.29 22.21 20.74 17.3 20.4C20.99 21 24.65 21.85 28.21 22.95C29.64 23.38 31.12 23.91 32.1 25.03C30.11 27.2 28.47 29.05 26.13 30.89C25.55 31.35 24.94 31.82 24.25 32.11C23.3 32.51 22.23 32.55 21.19 32.54C20.79 32.54 20.38 32.54 19.97 32.54C18.55 31.96 17.16 31.3 15.8 30.57C17.25 28.63 18.91 26.82 20.72 25.21C17.84 25.89 15.55 26.51 13.28 28.41C9.06998 25.89 4.59998 23.79 -0.0200195 22.13C5.50998 17.78 12.24 15.24 19.16 13.94C22.08 13.4 25.09 13.15 28.02 13.67C31.6 14.31 34.75 16.01 37.59 18.27H37.61Z" fill="url(#paint4_linear_20_2811)"/>
<path d="M35.71 48.12C29.34 48.87 22.81 50.01 16.92 52.43C16.18 52.64 15.45 52.87 14.73 53.1C15.29 46.93 18.48 40.96 22.59 36.41C25.99 36.74 29.3 38.06 31.97 40.19C27.7 40.9 23.62 42.77 20.3 45.55C23.5 44.33 26.89 43.59 30.3 43.38C30.88 43.34 31.47 43.32 32.04 43.46C34.05 43.96 35.03 46.17 35.71 48.13V48.12Z" fill="url(#paint5_linear_20_2811)"/>
<path d="M246.59 38.21C246.3 40.33 246.13 42.48 246.09 44.62C246.08 45.23 246.09 45.86 246.36 46.41C246.9 47.51 248.26 47.87 249.46 48.08C253.3 48.76 257.17 49.15 261.06 49.24C262.36 49.28 263.74 49.23 264.79 48.44C266.16 45.09 268.42 42.06 271.14 39.69C273.72 37.44 276.03 34.88 278 32.08C278.08 31.98 278.15 31.88 278.22 31.77C278.72 31.04 270.56 27.86 269.8 27.68C266.75 26.96 264.04 27.24 261.01 28C260.15 28.22 259.29 28.48 258.44 28.78C254.62 30.13 251.09 32.27 248.18 35.08C247.32 35.9 246.78 37.01 246.62 38.2L246.59 38.21Z" fill="url(#paint6_linear_20_2811)"/>
<path d="M238.92 68.51C238.92 68.65 253.98 71.75 255.31 71.96C259.78 72.66 264.11 74.56 268.05 76.85C268.67 77.2 269.27 77.57 269.87 77.94C270.75 72.26 269.23 66.17 266.55 61.15C266.5 61.06 266.46 60.97 266.41 60.88C265.76 59.67 265.02 58.5 264.02 57.55C261.76 55.39 258.5 54.67 255.39 54.3C250.22 53.68 246.33 52.51 243.41 57.55C241.44 60.97 239.92 64.67 238.92 68.5V68.51Z" fill="url(#paint7_linear_20_2811)"/>
<path d="M243.52 53.95C243.44 54.34 243.39 54.76 243.6 55.09C243.78 55.35 244.08 55.48 244.37 55.59C251.68 58.57 259.16 61.58 266.93 62.61C268.34 62.8 269.76 62.92 271.19 62.97C270.93 60.73 270.44 58.52 269.74 56.38C271.74 58.26 273.28 59.82 274.22 62.41C278.77 62.35 283.33 62.74 287.81 63.56C285.39 57.5 281.17 52.33 276.23 48.07C274.14 46.27 271.84 44.68 269.25 43.73C266.08 42.58 262.76 42.48 259.43 42.97C255.4 43.56 251.37 45.02 247.58 46.53C244.99 47.56 244.06 51.25 243.51 53.97L243.52 53.95Z" fill="url(#paint8_linear_20_2811)"/>
<path d="M258.42 28.79C258.42 28.79 258.4 28.86 258.4 28.88C258.38 29.26 258.58 29.61 258.79 29.92C259.7 31.36 260.6 32.79 261.5 34.23C264.1 33.08 266.78 32.1 269.51 31.34C267.22 32.46 265.17 34.07 263.54 36.02C263.4 36.2 263.25 36.39 263.26 36.61C263.26 36.85 263.46 37.05 263.63 37.22C264.89 38.45 266.15 39.68 267.41 40.91C270.75 38.87 273.81 36.39 276.51 33.54C276.97 33.05 277.47 32.57 277.98 32.08C278.06 31.98 278.13 31.88 278.2 31.77C278.7 31.04 270.54 27.86 269.78 27.68C266.73 26.96 264.02 27.24 260.99 28C260.13 28.22 259.27 28.48 258.42 28.78V28.79Z" fill="url(#paint9_linear_20_2811)"/>
<path d="M259.43 42.95C258.87 44.36 259.45 46.82 260.57 47.77C261.05 48.17 261.63 48.4 262.21 48.62C266.47 50.27 270.64 52.1 274.73 54.1C271.49 52.87 268.16 51.85 264.79 51.07C263.44 50.75 262.01 50.48 260.7 50.93C261.28 53.6 261.74 55.84 262.76 58.41C263.02 59.05 263.28 59.71 263.7 60.27C264.28 61.03 265.12 61.56 265.95 62.04C266.27 62.22 266.6 62.41 266.93 62.6C268.34 62.79 269.76 62.91 271.19 62.96C270.93 60.72 270.44 58.51 269.74 56.37C271.74 58.25 273.28 59.81 274.22 62.4C278.77 62.34 283.33 62.73 287.81 63.55C285.39 57.49 281.17 52.32 276.23 48.06C274.14 46.26 271.84 44.67 269.25 43.72C266.08 42.57 262.76 42.47 259.43 42.96V42.95Z" fill="url(#paint10_linear_20_2811)"/>
<path d="M252.11 68.75C257.68 70.86 263.29 73.35 268.05 76.85C268.67 77.2 269.27 77.57 269.87 77.94C270.75 72.26 269.23 66.17 266.55 61.15C263.41 60.68 260.14 61.13 257.26 62.44C260.94 64.04 264.19 66.64 266.56 69.89C263.96 68.07 261.07 66.64 258.05 65.69C257.54 65.52 257.01 65.38 256.47 65.37C254.55 65.37 253.17 67.14 252.12 68.74L252.11 68.75Z" fill="url(#paint11_linear_20_2811)"/>
<path d="M256 26.42C255.88 30.37 255.69 34.21 255.15 38.12C255.13 38.29 255.1 38.46 255 38.6C254.88 38.77 254.67 38.87 254.52 39.01C254.1 39.41 254.21 40.1 254.4 40.65C254.74 41.64 254.94 42.83 254.96 43.89C255.08 49.22 253.82 54.97 253.06 60.24C253 60.67 252.85 61.08 252.62 61.44C251.27 63.55 249.61 65.47 247.68 67.07C246.06 68.41 243.99 70.22 241.81 70.05C238.81 69.82 235.8 69.88 232.79 69.96C229.91 70.04 227.03 69.94 224.15 69.92C219.97 69.89 215.79 69.86 211.61 69.82C207.12 69.82 202.62 69.75 198.13 69.71C193.71 69.67 189.3 70.02 185.07 68.77C184.75 68.68 184.42 68.58 184.1 68.62C183.27 68.71 182.7 69.49 181.89 69.66C181.05 69.83 179.74 69.55 178.85 69.54C176.37 69.52 173.9 69.5 171.42 69.49C166.58 69.46 161.75 69.43 156.91 69.42C147.36 69.39 137.81 69.39 128.26 69.47C117.41 69.55 106.56 69.64 95.71 69.72L51.37 70.06C50.89 70.06 50.4 69.96 49.97 69.73C47.44 68.4 45.17 66.61 43.29 64.46C41.5 62.41 40.77 59.83 40.09 57.22C39.6 55.34 40.7 54.79 42.4 54.57C41.73 54.42 41.06 54.26 40.4 54.11C40.18 54.06 39.95 54 39.8 53.83C39.68 53.69 39.64 53.51 39.6 53.33C37.67 44.41 37.93 35.5 37.64 26.39C37.62 25.73 37.81 25.08 38.19 24.55C40.64 21.15 43.74 17.9 46.61 16.09C47.06 15.8 47.6 15.67 48.13 15.67C51.47 15.67 54.8 15.65 58.14 15.64C61.41 15.64 64.68 15.62 67.95 15.61C71.09 15.61 74.73 15.08 77.68 16.38C78.43 16.71 78.99 16.11 79.67 15.88C80.49 15.6 81.19 15.58 82.07 15.57C84.12 15.55 86.17 15.56 88.21 15.55C90.04 15.55 91.88 15.54 93.71 15.53C115.03 15.53 136.34 15.44 157.66 15.45C162.48 15.45 167.3 15.45 172.12 15.46C174.48 15.46 176.83 15.46 179.19 15.47C180.33 15.47 181.6 15.31 182.73 15.47C183.96 15.65 184.08 16.11 184.82 17.16C184.88 17.24 184.94 17.32 185.03 17.35C185.21 17.39 185.35 17.19 185.44 17.03C186.26 15.59 187.94 15.48 189.4 15.49L245.51 15.65C245.94 15.77 246.6 15.95 247.03 16.07C249.9 17.88 253.01 21.13 255.45 24.53C255.83 25.06 256.02 25.71 256 26.37V26.42Z" fill="url(#paint12_linear_20_2811)"/>
<path d="M252.21 26.01C252.21 26.19 252.21 26.37 252.19 26.55C252.17 27.18 252.15 27.8 252.12 28.43C252 31.68 251.82 34.93 251.59 38.17C251.54 38.9 251.49 39.63 251.42 40.35C250.97 46.37 250.34 52.35 249.54 58.23C249.48 58.71 249.42 59.18 249.35 59.65C248.85 60.43 248.31 61.17 247.73 61.85C247.01 62.72 246.23 63.52 245.4 64.23C245.38 64.25 245.36 64.26 245.34 64.28L245.13 64.46C244.4 65.07 242.9 66.35 242.29 66.4C240.81 66.28 239.17 66.22 237.32 66.22C235.84 66.22 234.35 66.26 232.87 66.3C232.08 66.32 231.29 66.33 230.5 66.33C229.31 66.33 228.11 66.31 226.92 66.29C226.06 66.28 225.21 66.27 224.35 66.26L211.78 66.16C206.24 66.12 200.7 66.07 195.16 66.02C192.43 65.99 189.3 66.49 186.72 65.61C186.01 65.37 185.28 65.13 184.53 65.16C183.61 65.21 182.86 65.57 181.99 65.76C181.65 65.85 181.3 65.9 180.91 65.9C179.29 65.9 177.66 65.87 176.04 65.86C172.78 65.83 169.52 65.81 166.26 65.79C159.62 65.75 152.99 65.73 146.35 65.73C139.71 65.73 133.99 65.75 128.2 65.8L117.21 65.89L107.46 65.96L51.4 66.4C51.1 66.4 50.76 66.29 50.39 66.09C50.39 66.09 50.39 66.1 50.37 66.09C49.86 65.82 49.32 65.4 48.78 64.92C47.65 63.9 46.56 62.62 46.04 62C44.86 60.62 44.22 59.26 43.93 57.71C43.86 57.27 43.81 56.82 43.78 56.35C43.76 56.02 43.75 55.69 43.75 55.35C45.69 54.74 47.66 54.23 49.65 53.82C47.64 54.01 45.63 54.11 43.63 54.13C43.55 52.45 43.39 50.76 43.2 49.07C43.13 48.5 43.06 47.94 43 47.38C42.72 45.14 42.42 42.9 42.25 40.67C42.23 40.36 42.2 40.05 42.18 39.74C42.15 39.29 42.11 38.84 42.09 38.39C41.96 36.72 41.86 35.04 41.76 33.36C41.69 32.08 41.63 30.8 41.57 29.52C41.54 28.86 41.07 26.53 41.44 26.02C42.15 25.02 42.91 24.07 43.68 23.19C44.45 22.29 45.24 21.47 46.01 20.75C46.78 20.04 47.53 19.42 48.25 18.93L67.8 18.87L76.4 18.85L90.91 18.81H93.12H93.63C99.56 18.79 105.33 18.78 110.96 18.77C112.11 18.76 113.25 18.76 114.38 18.76C126.55 18.73 138.08 18.72 149.26 18.72H153.81C165.7 18.72 177.6 18.74 189.49 18.78C192.32 18.79 195.1 18.91 197.91 19.07C198.16 19.07 198.42 19.09 198.66 19.03C198.92 18.96 199.14 18.81 199.39 18.7C200.74 18.07 202.27 18.81 203.68 18.82C204.96 18.82 206.25 18.82 207.54 18.82C210.28 18.83 213.03 18.84 215.78 18.85C221.17 18.85 226.56 18.88 231.95 18.89C235.12 18.89 238.3 18.91 241.47 18.92C242.57 18.92 244.12 18.64 245.18 18.93L245.58 19.04C247.68 20.52 250.11 23.07 252.22 26.01H252.21Z" fill="url(#paint13_radial_20_2811)"/>
<g style="mix-blend-mode:multiply">
<path d="M124.36 50.81C116.63 49.66 108.85 48.64 101.06 48.01C93.2099 47.37 85.4799 47.5 77.7299 48.99C66.5099 51.16 55.1899 55.27 43.7599 56.35C43.7899 56.82 43.8399 57.27 43.9099 57.71C52.3099 57.08 60.7399 54.59 68.7799 52.63C74.4599 51.24 80.1199 50.24 85.8899 49.92C90.3199 51.09 94.7499 52.29 99.1499 53.58C101.43 54.25 103.7 54.94 105.96 55.66C108 56.3 110.7 56.72 112.54 57.79C106.9 54.5 100.16 53.7 94.1199 51.22C93.9099 51.13 93.6599 50.99 93.6599 50.76C93.6599 50.58 93.8099 50.44 93.9599 50.33C94.1199 50.2 94.2899 50.08 94.4499 49.95C101.2 50.31 107.93 51.21 114.61 52.11C137.35 55.2 159.78 60.03 181.99 65.75C182.86 65.56 183.61 65.2 184.53 65.15C185.28 65.12 186.01 65.36 186.72 65.6C189.3 66.48 192.43 65.98 195.16 66.01C186.72 63.73 178.24 61.58 169.73 59.59C154.74 56.08 139.61 53.06 124.37 50.8L124.36 50.81Z" fill="#F2E7E1"/>
<path d="M73.71 43.34C75.68 42.77 77.64 42.19 79.61 41.6C81.48 41.04 83.39 40.52 85.14 39.63C86.72 38.82 88.25 37.72 89 36.06C89.69 34.55 89.5 32.75 88.96 31.22C87.82 27.98 85.14 25.24 82.56 23.07C80.64 21.47 78.56 20.09 76.39 18.85L67.79 18.87C73.02 21.4 78.16 24.52 81.8 29.06C83.3 30.94 85.17 33.9 84.54 36.46C83.7 37.35 82.91 38.33 81.76 38.67C80.54 39.03 79.24 38.58 78.07 38.09C75.66 37.09 73.32 35.92 71.06 34.61C72.69 35.65 74.23 36.82 75.77 37.99C76.49 38.53 77.29 39.36 76.95 40.19C76.87 40.39 76.73 40.55 76.56 40.69C76.3 40.77 76.03 40.85 75.76 40.93C68.31 43.14 60.79 45.22 53.09 46.41C49.73 46.93 46.37 47.26 43 47.38C43.06 47.94 43.13 48.5 43.2 49.07C45.15 49 47.09 48.84 49.01 48.63C57.39 47.69 65.64 45.67 73.73 43.34H73.71Z" fill="#F2E7E1"/>
<path d="M66.0199 33.75C65.9299 32.16 64.6799 30.77 63.6699 29.62C62.6199 28.43 61.4499 27.38 60.1699 26.45C57.2699 24.37 53.9499 22.98 50.5499 21.95C49.0399 21.5 47.5199 21.11 45.9899 20.75C45.2199 21.47 44.4299 22.29 43.6599 23.19C44.4899 23.4 45.3199 23.62 46.1399 23.85C49.4899 24.8 52.7599 26.08 55.6599 28.03C57.9099 29.54 60.7999 31.84 61.7299 34.56C55.3699 36.92 48.7699 38 42.0699 38.39C42.0899 38.84 42.1299 39.29 42.1599 39.74C49.6999 39.56 57.3099 37.67 64.2299 35.22C64.7999 35.01 66.0599 34.52 66.0199 33.75Z" fill="#F2E7E1"/>
<path d="M212.59 40.37C187.35 40.22 162.29 37.11 137.57 32.18C131.5 30.97 124.56 30.1 119.72 25.89C117.39 23.86 115.78 21.37 114.37 18.75C113.24 18.75 112.1 18.75 110.95 18.76C111.76 21.45 112.99 24 114.74 26.06C118.35 30.32 123.66 31.98 128.92 33.19C141.27 36.05 153.79 38.22 166.37 39.82C167.63 39.98 168.88 40.14 170.14 40.28C171.86 40.7 173.59 41.12 175.3 41.56C181.82 43.25 187.91 46.04 194.33 48.1C192.15 46.97 189.94 45.91 187.69 44.93C187.54 44.87 187.39 44.8 187.24 44.74C186.34 44.35 181.83 41.81 181.03 42.05C181.6 41.88 182.17 41.71 182.75 41.55C202.82 43.22 223.03 43.26 243.08 41.3C245.87 41.03 248.65 40.72 251.42 40.36C251.49 39.64 251.54 38.91 251.59 38.18C250.96 38.26 250.33 38.34 249.7 38.41C237.38 39.83 224.98 40.44 212.59 40.38V40.37Z" fill="#F2E7E1"/>
<path d="M250.52 26.83C241.41 28.33 232.22 29.46 223.01 30.19C213.77 30.91 204.5 31.29 195.23 31.27C194.69 31.27 194.15 31.27 193.61 31.27C193.41 31.21 193.21 31.16 193.02 31.08C196.19 28.4 199.38 25.75 202.47 22.99C198.52 25.49 194.58 27.98 190.63 30.48C189.95 30.91 189.15 31.36 188.38 31.1C188.2 31.14 188.06 31.17 187.93 31.21C181.01 31.1 174.06 30.76 167.22 29.83C164.68 29.48 162.15 29.01 159.67 28.36C157.5 27.79 155.33 27.12 153.88 25.31C152.17 23.19 152.6 20.84 153.82 18.72H151.99C150.97 20.05 150.3 21.59 150.29 23.46C150.29 25.4 150.86 26.99 152.48 28.12C154.06 29.23 156.06 29.75 157.9 30.25C167.13 32.78 177 32.95 186.5 33.21C205.98 33.75 225.48 32.54 244.74 29.64C247.21 29.27 249.68 28.87 252.14 28.44C252.17 27.81 252.19 27.19 252.21 26.56C251.65 26.66 251.1 26.75 250.54 26.84L250.52 26.83Z" fill="#F2E7E1"/>
<path d="M71.05 34.6C70.46 34.22 69.86 33.86 69.25 33.52C69.84 33.89 70.45 34.25 71.05 34.6Z" fill="#F2E7E1"/>
<path d="M81.6599 60.37C74.9499 60.82 68.3499 62.04 61.7499 63.28C57.4599 64.09 53.0999 64.82 48.7599 64.92C49.2999 65.4 49.8399 65.82 50.3499 66.09C50.3499 66.1 50.3699 66.09 50.3699 66.09C52.2799 66 54.1799 65.78 56.0399 65.5C62.5999 64.51 69.0699 63.07 75.6699 62.38C86.5199 61.24 97.1499 62.75 107.44 65.96L117.19 65.89C111.91 64.05 106.53 62.52 101.02 61.52C94.6299 60.36 88.1399 59.94 81.6599 60.37Z" fill="#F2E7E1"/>
<path d="M218.49 49.22C222.03 51.73 225.56 54.24 229.1 56.76C230.1 57.47 231.17 58.31 231.35 59.51C231.41 59.93 229.14 59.99 226.86 59.91C219.73 59.14 212.6 58.26 205.48 57.26C197.5 56.15 189.54 54.89 181.59 53.5C177.52 52.79 173.45 52.06 169.39 51.31C167.38 50.94 165.37 50.55 163.36 50.2C161.46 49.87 159.59 49.22 157.69 48.82C141.97 45.49 126.23 41.85 110.78 37.4C107.55 36.47 104.56 35.1 102.03 32.87C101.73 32.61 101.44 32.33 101.16 32.05C100.74 30.97 100.44 29.85 100.27 28.71C103.26 29 106.19 29.89 108.82 31.33C106.2 29.56 103.27 28.29 100.52 26.72C98.1999 25.39 96.4699 23.7 94.5499 21.93C94.0499 20.89 93.5699 19.84 93.1099 18.79H90.8999C91.4299 20.37 91.9699 21.93 92.5799 23.47C94.5899 28.56 97.3499 33.71 102.12 36.72C105.15 38.63 108.75 39.57 112.17 40.54C132.4 46.28 153.46 48.37 173.77 53.98C173.98 54.04 174.18 54.09 174.39 54.15C176.64 54.78 178.88 55.44 181.18 55.87C186.04 56.79 190.9 57.77 195.76 58.51C211.79 60.96 227.91 62.85 244.08 64.12C244.52 64.15 244.96 64.19 245.4 64.22C246.23 63.51 247.01 62.71 247.73 61.84C244.93 61.63 242.15 61.39 239.35 61.14C232.4 57.16 225.44 53.19 218.49 49.21V49.22Z" fill="#F2E7E1"/>
</g>
<path d="M251.57 29.47C251.61 28.82 251.64 28.15 251.43 27.53C251.19 26.82 250.65 26.25 250.13 25.71C248.49 24.02 246.85 21.66 244.77 20.51C242.76 19.41 239.96 20.12 237.73 20.1C234.75 20.08 231.77 20.05 228.79 20.03C222.7 19.98 216.61 19.94 210.52 19.9C207.14 19.88 203.82 19.82 200.48 19.22C200.24 19.18 199.99 19.13 199.75 19.16C199.47 19.2 199.21 19.33 198.95 19.45C197.32 20.19 195.33 19.81 193.56 19.81C191.5 19.81 189.44 19.79 187.38 19.79C183.26 19.78 179.14 19.77 175.01 19.76C159.82 19.73 144.63 19.76 129.44 19.8C127.05 19.8 124.62 19.71 122.23 19.8C120.3 19.88 118.77 20.68 116.93 21.04C115.47 21.33 114.06 20.48 112.65 20.03C111.45 19.65 110.19 19.56 108.93 19.58C104.08 19.64 99.1399 19.96 94.2699 20.19C92.4799 20.27 90.6999 20 88.8899 20.01C82.1199 20.06 75.3599 20.12 68.5999 20.19C65.2099 20.23 61.8199 20.26 58.4399 20.3C56.6799 20.32 54.9199 20.34 53.1599 20.36C52.2699 20.36 49.3499 19.92 48.6799 20.42C46.4699 22.06 44.7199 24.23 42.9899 26.37C42.8099 26.6 42.6299 26.83 42.5499 27.1C42.4899 27.33 42.5099 27.56 42.5299 27.79C42.6599 29.72 42.2899 31.21 42.8699 33.05C43.3299 34.53 42.7799 35.44 42.6099 36.81C42.4099 38.4 42.7599 40.19 42.8699 41.79C42.9799 43.53 43.0999 45.28 43.2099 47.02C43.2799 48.15 42.9399 50.91 43.5299 51.85C43.4299 51.69 43.3399 51.52 43.2399 51.35C42.3099 43.02 41.6999 34.53 41.4199 26.01C43.5899 22.99 46.0999 20.38 48.2299 18.92L93.6199 18.79C113.72 18.73 131.91 18.7 149.25 18.7C162.66 18.7 176.07 18.72 189.48 18.76C192.06 18.76 194.61 18.82 197.18 18.57C197.5 18.54 197.82 18.51 198.13 18.41C198.76 18.2 199.27 17.71 199.91 17.56C200.51 17.41 201.14 17.58 201.73 17.74C203.17 18.14 204.66 18.78 206.15 18.81C207.55 18.83 208.96 18.81 210.36 18.82C213.29 18.82 216.23 18.84 219.16 18.85C224.6 18.87 230.03 18.88 235.47 18.9C238.7 18.9 241.93 18.92 245.16 18.93L245.56 19.04C247.66 20.52 250.09 23.07 252.2 26.01C252.13 28.17 252.04 30.33 251.93 32.48C251.83 34.46 251.41 36.49 251.74 38.46C251.8 38.79 251.87 39.12 251.9 39.46C252.02 40.79 251.29 42.01 251.18 43.33C251.03 45.04 250.87 46.76 250.69 48.47C250.36 51.66 249.55 55.03 249.53 58.22C249.6 48.63 251.05 39.03 251.56 29.46L251.57 29.47Z" fill="#FA8C37"/>
<g style="mix-blend-mode:screen">
<path d="M150.34 58.47C140.46 56.23 131.34 54.31 122.06 53C112.84 51.69 103.69 50.21 94.37 49.78C112.52 53.29 132.1 55.48 150.34 58.48V58.47Z" fill="#3B1A09"/>
</g>
<g style="mix-blend-mode:screen">
<path d="M238.34 41.58C221.34 42.93 203.53 44.04 186.59 41.58C190.25 43.32 194.45 43.59 198.5 43.84C211.63 44.65 225.38 43.88 238.34 41.58Z" fill="#3B1A09"/>
</g>
<g style="mix-blend-mode:screen">
<path d="M182.08 32.9C172.71 33.48 163.23 32.08 154.42 28.84C155.92 30.42 158.44 31.35 160.54 31.92C167.26 33.76 175.17 33.9 182.07 32.9H182.08Z" fill="#3B1A09"/>
</g>
<g style="mix-blend-mode:screen">
<path d="M86.05 39.47C81.47 41.87 76.01 42.95 71.04 44.31C65.67 45.78 60.24 47.07 54.72 47.79C65.6 47.58 76.5 44.68 86.05 39.47Z" fill="#3B1A09"/>
</g>
<g style="mix-blend-mode:screen">
<path d="M183.27 56.19C179.14 55.98 175.15 54.67 171.18 53.52C163.31 51.24 155.28 49.55 147.17 48.44C153.58 50.15 160.29 51.79 166.7 53.51C169.3 54.21 171.91 54.9 174.55 55.41C177.39 55.96 180.39 56.08 183.28 56.18L183.27 56.19Z" fill="#3B1A09"/>
</g>
<g style="mix-blend-mode:screen">
<path d="M246.65 55.4C246.33 55.08 245.99 54.78 245.64 54.51C244.23 53.41 242.58 52.65 240.84 52.31C240.76 52.25 240.61 52.23 240.51 52.24C240.15 52.27 239.79 52.42 239.5 52.64C238.06 53.75 236.84 55.35 235.96 56.96C235.74 57.36 235.57 57.7 235.89 58.09C236.16 58.44 236.53 58.66 236.91 58.88C237.75 59.39 238.64 59.83 239.54 60.2C239.93 60.36 240.44 60.18 240.8 60C241.62 59.6 242.37 58.57 242.9 57.85C242.95 57.78 243 57.71 243 57.63C243 57.52 242.92 57.43 242.84 57.36C242.67 57.19 242.49 57.02 242.32 56.85C242.28 56.81 242.23 56.76 242.17 56.76C242.1 56.76 242.03 56.81 241.98 56.86C241.31 57.52 240.64 58.18 239.97 58.84C239.61 58.59 239.25 58.38 238.87 58.16C238.52 57.96 238.13 57.77 237.83 57.49C237.68 57.35 237.55 57.17 237.59 56.96C237.63 56.77 237.79 56.57 237.88 56.41C238.3 55.71 238.74 55.03 239.23 54.38C239.58 53.92 239.97 53.5 240.35 53.07C241.76 53.42 243.09 54.02 244.27 54.89C244.27 54.96 244.77 55.29 244.85 55.35C245.05 55.52 245.24 55.7 245.43 55.88C245.62 56.07 245.84 56.28 246 56.5C246.08 56.62 246.33 56.94 246.33 57.07C246.33 57.27 245.94 57.71 245.81 57.86C245.52 58.18 245.23 58.5 244.94 58.82C244.35 59.45 243.75 60.07 243.13 60.67C242.88 60.91 242.63 61.16 242.39 61.41C241.86 61.96 241.37 62.55 240.76 63.01C240.09 63.51 239.43 63.65 238.62 63.66C237.73 63.68 236.83 63.66 235.94 63.66C232.4 63.66 228.86 63.63 225.32 63.61C221.78 63.59 218.24 63.57 214.7 63.56C211.18 63.55 207.65 63.54 204.13 63.55C191.74 63.57 179.36 63.6 166.97 63.62C142.37 63.67 117.77 63.69 93.17 63.75C90.55 63.75 87.93 63.75 85.32 63.75C79.16 63.74 73 63.7 66.83 63.72C63.75 63.73 60.67 63.75 57.59 63.8C56.82 63.81 56.05 63.82 55.28 63.84C54.64 63.85 53.94 63.97 53.31 63.93C52.75 63.89 52.1 63.43 51.63 63.14C51.08 62.81 50.55 62.43 50.06 62.01C49.71 61.7 49.38 61.36 49.09 60.98C49.01 60.87 48.93 60.77 48.85 60.67C48.4 57.1 47.72 48.31 47.26 44.74C47.03 42.97 46.75 41.2 46.49 39.43C46.37 38.58 46.24 37.73 46.12 36.88C45.98 35.91 45.93 34.86 45.48 33.98C45.41 33.84 44.95 34.03 44.93 34.15C44.64 35.83 45.13 37.73 45.33 39.4C45.55 41.26 45.75 43.12 45.99 44.98C46.28 47.21 46.82 54.66 47.13 56.89C47.29 58.03 47.45 59.18 47.61 60.32C47.74 61.23 48.29 61.88 48.91 62.52C49.55 63.18 50.35 63.65 51.1 64.19C51.67 64.6 52.28 64.56 52.95 64.57C53.72 64.58 54.49 64.6 55.26 64.61C56.8 64.63 58.34 64.65 59.87 64.65C62.95 64.67 66.02 64.66 69.1 64.65C75.22 64.62 81.35 64.56 87.47 64.54C99.85 64.52 112.22 64.5 124.6 64.49C149.21 64.46 173.83 64.37 198.44 64.32C212.4 64.29 226.35 64.1 240.31 64.05C240.85 64.05 241.48 63.46 241.89 63.15C242.41 62.75 242.9 62.32 243.37 61.86C244.06 61.18 244.69 60.44 245.29 59.67C245.87 58.93 246.5 58.25 247.12 57.53C247.19 57.45 247.17 57.41 247.12 57.37C247.13 57.36 247.15 57.34 247.16 57.33C247.39 57.08 247.56 56.76 247.46 56.41C247.35 55.99 246.96 55.64 246.67 55.35L246.65 55.4Z" fill="#3B1A09"/>
<path d="M247.26 24.35C246.77 23.69 246.08 23.22 245.46 22.68C244.98 22.27 244.36 22.31 243.7 22.3C242.93 22.29 242.17 22.27 241.4 22.26C239.87 22.24 238.33 22.22 236.79 22.22C233.72 22.2 230.64 22.21 227.55 22.22C221.42 22.25 211.22 22.3 205.1 22.32C192.72 22.34 180.35 22.36 167.97 22.37C143.36 22.4 118.74 22.49 94.13 22.54C80.17 22.57 66.22 22.76 52.26 22.81C51.72 22.81 51.09 23.4 50.68 23.71C50.16 24.11 49.67 24.54 49.2 25C48.51 25.68 47.88 26.42 47.28 27.19C46.7 27.93 46.07 28.61 45.45 29.33C45.38 29.41 45.4 29.45 45.45 29.49C45.44 29.5 45.42 29.52 45.41 29.53C45.18 29.78 45.01 30.1 45.11 30.45C45.22 30.87 45.61 31.22 45.9 31.51C46.22 31.83 46.56 32.13 46.91 32.4C48.32 33.5 49.97 34.26 51.71 34.6C51.79 34.66 51.94 34.68 52.04 34.67C52.4 34.64 52.76 34.49 53.05 34.27C54.49 33.16 55.71 31.56 56.59 29.95C56.81 29.55 56.98 29.22 56.66 28.82C56.39 28.47 56.02 28.25 55.64 28.03C54.8 27.52 53.91 27.08 53.01 26.71C52.62 26.55 52.11 26.73 51.75 26.91C50.93 27.31 50.18 28.34 49.65 29.06C49.6 29.13 49.55 29.2 49.55 29.28C49.55 29.39 49.63 29.48 49.71 29.55C49.88 29.72 50.06 29.89 50.23 30.06C50.27 30.1 50.32 30.15 50.38 30.15C50.46 30.15 50.52 30.1 50.57 30.05C51.24 29.39 51.91 28.73 52.58 28.07C52.94 28.32 53.3 28.53 53.68 28.75C54.03 28.95 54.42 29.14 54.72 29.42C54.87 29.56 55 29.74 54.96 29.95C54.92 30.14 54.76 30.34 54.67 30.5C54.25 31.2 53.81 31.88 53.32 32.53C52.97 32.99 52.58 33.41 52.2 33.84C50.79 33.49 49.46 32.89 48.28 32.02C48.28 31.95 47.78 31.62 47.7 31.56C47.5 31.39 47.31 31.21 47.12 31.03C46.93 30.84 46.71 30.63 46.55 30.41C46.47 30.29 46.22 29.97 46.22 29.84C46.22 29.64 46.61 29.2 46.74 29.05C47.03 28.73 47.32 28.41 47.61 28.09C48.2 27.46 48.8 26.84 49.42 26.24C49.67 26 49.92 25.75 50.16 25.5C50.69 24.95 51.18 24.36 51.79 23.9C52.46 23.4 53.12 23.26 53.93 23.25C54.82 23.23 55.72 23.25 56.61 23.25C60.15 23.25 63.69 23.28 67.23 23.3C70.77 23.32 74.31 23.34 77.85 23.35C81.37 23.36 84.9 23.37 88.42 23.36C100.81 23.34 113.19 23.31 125.58 23.29C150.18 23.24 174.78 23.22 199.38 23.16C202 23.16 204.62 23.16 207.23 23.16C213.39 23.17 223.41 23.22 229.58 23.19C232.66 23.18 235.75 23.16 238.84 23.11C239.61 23.1 240.39 23.09 241.16 23.07C241.8 23.06 242.53 22.94 243.15 22.98C243.7 23.02 244.24 23.48 244.65 23.77C245.13 24.1 245.56 24.48 245.95 24.9C246.23 25.21 246.48 25.55 246.68 25.93C246.74 26.04 246.79 26.14 246.85 26.24C246.48 29.81 246.09 33.37 245.73 36.94C245.55 38.71 245.41 45.61 245.26 47.38C245.19 48.23 245.11 49.08 245.04 49.93C244.96 50.9 244.76 51.95 245.01 52.83C245.05 52.97 245.55 52.78 245.6 52.66C246.28 50.98 246.23 49.09 246.42 47.41C246.63 45.55 246.88 38.56 247.06 36.7C247.29 34.47 247.49 32.24 247.7 30.02C247.81 28.88 247.91 27.73 248.02 26.59C248.1 25.68 247.7 25.03 247.23 24.39L247.26 24.35Z" fill="#3B1A09"/>
</g>
<path d="M246.57 54.88C246.25 54.56 245.91 54.26 245.56 53.99C244.15 52.89 242.5 52.13 240.76 51.79C240.68 51.73 240.53 51.71 240.43 51.72C240.07 51.75 239.71 51.9 239.42 52.12C237.98 53.23 236.76 54.83 235.88 56.44C235.66 56.84 235.49 57.17 235.81 57.57C236.08 57.92 236.45 58.14 236.83 58.36C237.67 58.87 238.56 59.31 239.46 59.68C239.85 59.84 240.36 59.66 240.72 59.48C241.54 59.08 242.29 58.05 242.82 57.33C242.87 57.26 242.92 57.19 242.92 57.11C242.92 57 242.84 56.91 242.76 56.84C242.59 56.67 242.41 56.5 242.24 56.33C242.2 56.29 242.15 56.24 242.09 56.24C242.01 56.24 241.95 56.29 241.9 56.34C241.23 57 240.56 57.66 239.89 58.32C239.53 58.07 239.17 57.86 238.79 57.64C238.44 57.44 238.05 57.25 237.75 56.97C237.6 56.83 237.47 56.65 237.51 56.44C237.55 56.25 237.71 56.05 237.8 55.89C238.22 55.19 238.66 54.51 239.15 53.86C239.5 53.4 239.89 52.98 240.27 52.55C241.68 52.9 243.01 53.5 244.19 54.37C244.19 54.44 244.69 54.77 244.77 54.83C244.97 55 245.16 55.18 245.35 55.36C245.54 55.55 245.76 55.76 245.92 55.98C246 56.1 246.25 56.42 246.25 56.55C246.25 56.75 245.86 57.19 245.73 57.34C245.44 57.66 245.15 57.98 244.86 58.3C244.27 58.93 243.67 59.55 243.05 60.15C242.8 60.39 242.55 60.64 242.31 60.89C241.78 61.44 241.29 62.03 240.68 62.49C240.01 62.99 239.35 63.13 238.54 63.14C237.65 63.16 236.75 63.14 235.86 63.14C232.32 63.14 228.78 63.11 225.24 63.09C221.7 63.07 218.16 63.05 214.62 63.04C211.1 63.03 207.57 63.02 204.05 63.03C191.66 63.05 179.28 63.08 166.89 63.1C142.29 63.15 117.69 63.17 93.09 63.23C90.47 63.23 87.85 63.23 85.24 63.23C79.08 63.22 72.92 63.18 66.75 63.2C63.67 63.21 60.59 63.23 57.51 63.28C56.74 63.29 55.97 63.3 55.2 63.32C54.56 63.33 53.86 63.45 53.23 63.41C52.67 63.37 52.02 62.91 51.55 62.62C51 62.29 50.47 61.91 49.98 61.49C49.63 61.18 49.3 60.84 49.01 60.46C48.93 60.35 48.85 60.25 48.77 60.15C48.32 56.58 47.64 47.79 47.18 44.22C46.95 42.45 46.67 40.68 46.41 38.91C46.29 38.06 46.16 37.21 46.04 36.36C45.9 35.39 45.85 34.34 45.4 33.46C45.33 33.32 44.87 33.51 44.85 33.63C44.56 35.31 45.05 37.21 45.25 38.88C45.47 40.74 45.67 42.6 45.91 44.46C46.2 46.69 46.74 54.14 47.05 56.37C47.21 57.51 47.37 58.66 47.53 59.8C47.66 60.71 48.21 61.36 48.83 62C49.47 62.66 50.27 63.13 51.02 63.67C51.59 64.08 52.2 64.04 52.87 64.05C53.64 64.06 54.41 64.08 55.18 64.09C56.72 64.11 58.26 64.13 59.79 64.13C62.87 64.15 65.94 64.14 69.02 64.13C75.14 64.1 81.27 64.04 87.39 64.02C99.77 64 112.14 63.98 124.52 63.97C149.13 63.94 173.75 63.85 198.36 63.8C212.32 63.77 226.27 63.58 240.23 63.53C240.77 63.53 241.4 62.94 241.81 62.63C242.33 62.23 242.82 61.8 243.29 61.34C243.98 60.66 244.61 59.92 245.21 59.15C245.79 58.41 246.42 57.73 247.04 57.01C247.11 56.93 247.09 56.89 247.04 56.85C247.05 56.84 247.07 56.82 247.08 56.81C247.31 56.56 247.48 56.24 247.38 55.89C247.27 55.47 246.88 55.12 246.59 54.83L246.57 54.88Z" fill="#903145"/>
<path d="M247.17 23.83C246.68 23.17 245.99 22.7 245.37 22.16C244.89 21.75 244.27 21.79 243.61 21.78C242.84 21.77 242.08 21.75 241.31 21.74C239.78 21.72 238.24 21.7 236.7 21.7C233.63 21.68 230.55 21.69 227.46 21.7C221.33 21.73 211.13 21.78 205.01 21.8C192.63 21.82 180.26 21.84 167.88 21.85C143.27 21.88 118.65 21.97 94.04 22.02C80.08 22.05 66.13 22.24 52.17 22.29C51.63 22.29 51 22.88 50.59 23.19C50.07 23.59 49.58 24.02 49.11 24.48C48.42 25.16 47.79 25.9 47.19 26.67C46.61 27.41 45.98 28.09 45.36 28.81C45.29 28.89 45.31 28.93 45.36 28.97C45.35 28.98 45.33 29 45.32 29.01C45.09 29.26 44.92 29.58 45.02 29.93C45.13 30.35 45.52 30.7 45.81 30.99C46.13 31.31 46.47 31.61 46.82 31.88C48.23 32.98 49.89 33.74 51.62 34.08C51.7 34.14 51.85 34.16 51.95 34.15C52.31 34.12 52.67 33.97 52.96 33.75C54.4 32.64 55.62 31.04 56.5 29.43C56.72 29.03 56.89 28.69 56.57 28.3C56.3 27.95 55.93 27.73 55.55 27.51C54.71 27 53.82 26.56 52.92 26.19C52.53 26.03 52.02 26.21 51.66 26.39C50.84 26.79 50.09 27.82 49.56 28.54C49.51 28.61 49.46 28.68 49.46 28.76C49.46 28.87 49.54 28.96 49.62 29.03C49.79 29.2 49.97 29.37 50.14 29.54C50.18 29.58 50.23 29.63 50.29 29.63C50.37 29.63 50.43 29.58 50.48 29.53C51.15 28.87 51.82 28.21 52.49 27.55C52.85 27.8 53.21 28.01 53.59 28.23C53.94 28.43 54.33 28.62 54.63 28.9C54.78 29.04 54.91 29.22 54.87 29.43C54.83 29.62 54.67 29.82 54.58 29.98C54.16 30.68 53.72 31.36 53.23 32.01C52.88 32.47 52.49 32.89 52.11 33.32C50.7 32.97 49.37 32.37 48.19 31.5C48.19 31.43 47.69 31.1 47.61 31.04C47.41 30.87 47.22 30.69 47.03 30.51C46.84 30.32 46.62 30.11 46.46 29.89C46.38 29.77 46.13 29.45 46.13 29.32C46.13 29.12 46.52 28.68 46.65 28.53C46.94 28.21 47.23 27.89 47.52 27.57C48.11 26.94 48.71 26.32 49.33 25.72C49.58 25.48 49.83 25.23 50.07 24.98C50.6 24.43 51.09 23.84 51.7 23.38C52.37 22.88 53.03 22.74 53.84 22.73C54.73 22.71 55.63 22.73 56.52 22.73C60.06 22.73 63.6 22.76 67.14 22.78C70.68 22.8 74.22 22.82 77.76 22.83C81.28 22.84 84.81 22.85 88.33 22.84C100.72 22.82 113.1 22.79 125.49 22.77C150.09 22.72 174.69 22.7 199.29 22.64C201.91 22.64 204.53 22.64 207.14 22.64C213.3 22.65 223.32 22.7 229.49 22.67C232.57 22.66 235.66 22.64 238.75 22.59C239.52 22.58 240.3 22.57 241.07 22.55C241.71 22.54 242.44 22.42 243.06 22.46C243.61 22.5 244.15 22.96 244.56 23.25C245.04 23.58 245.47 23.96 245.86 24.38C246.14 24.69 246.39 25.03 246.59 25.41C246.65 25.52 246.7 25.62 246.76 25.72C246.38 29.29 246 32.85 245.64 36.42C245.46 38.19 245.32 45.09 245.17 46.86C245.1 47.71 245.02 48.56 244.95 49.41C244.87 50.38 244.67 51.43 244.92 52.3C244.96 52.44 245.46 52.25 245.51 52.13C246.19 50.45 246.14 48.56 246.33 46.88C246.54 45.02 246.79 38.03 246.97 36.17C247.2 33.94 247.4 31.71 247.61 29.49C247.72 28.35 247.82 27.2 247.93 26.06C248.01 25.15 247.61 24.5 247.14 23.86L247.17 23.83Z" fill="#903145"/>
<path d="M110.83 32.152H119.534L125.87 45.176V35.736H123.502V32.152H132.43V35.736H129.486V51H124.75L117.038 35.704V47.416H119.726V51H110.798V47.416H113.454V35.736H110.83V32.152ZM148.535 49.208C147.554 50.04 146.53 50.648 145.463 51.032C144.418 51.4373 143.383 51.64 142.359 51.64C140.695 51.64 139.244 51.3093 138.007 50.648C136.77 49.9653 135.81 49.0373 135.127 47.864C134.466 46.6693 134.135 45.3147 134.135 43.8C134.135 42.2 134.455 40.8027 135.095 39.608C135.735 38.4133 136.62 37.4853 137.751 36.824C138.882 36.1627 140.194 35.832 141.687 35.832C143.244 35.832 144.588 36.1413 145.719 36.76C146.871 37.3787 147.756 38.2427 148.375 39.352C149.015 40.44 149.335 41.7307 149.335 43.224C149.335 43.5013 149.314 43.8213 149.271 44.184C149.25 44.5467 149.207 44.888 149.143 45.208H138.007C138.092 45.9333 138.338 46.5413 138.743 47.032C139.148 47.5227 139.66 47.8853 140.279 48.12C140.919 48.3547 141.612 48.472 142.359 48.472C143.255 48.472 144.119 48.3227 144.951 48.024C145.783 47.7253 146.54 47.3093 147.223 46.776L148.535 49.208ZM145.303 42.52C145.303 41.5173 144.994 40.7067 144.375 40.088C143.756 39.448 142.903 39.128 141.815 39.128C140.834 39.128 139.98 39.448 139.255 40.088C138.53 40.7067 138.146 41.5173 138.103 42.52H145.303ZM150.261 51V47.736H152.981L156.821 43.512L152.853 39.704H150.261V36.472H158.389V39.704H157.461L159.317 41.72L161.269 39.704H160.149V36.472H167.861V39.704H165.429L161.781 43.8L165.941 47.736H168.405V51H160.213V47.736H161.525L159.285 45.528L157.141 47.736H158.389V51H150.261ZM178.289 51.64C177.158 51.64 176.188 51.4267 175.377 51C174.566 50.552 173.948 49.8907 173.521 49.016C173.094 48.12 172.881 47 172.881 45.656V39.704H170.225V36.472H172.881V33.88L176.785 32.632V36.472H180.625V39.704H176.785V44.76C176.785 45.912 176.956 46.7973 177.297 47.416C177.66 48.0133 178.193 48.312 178.897 48.312C179.473 48.312 180.166 48.0987 180.977 47.672L181.745 50.68C181.233 50.936 180.678 51.16 180.081 51.352C179.484 51.544 178.886 51.64 178.289 51.64Z" fill="white"/>
</g>
<defs>
<linearGradient id="paint0_linear_20_2811" x1="14.51" y1="-11.55" x2="50.55" y2="22.14" gradientUnits="userSpaceOnUse">
<stop stop-color="#B39B19"/>
<stop offset="0.37" stop-color="#7C842D"/>
<stop offset="1" stop-color="#195C52"/>
</linearGradient>
<linearGradient id="paint1_linear_20_2811" x1="-10.49" y1="5.95999" x2="25.55" y2="39.65" gradientUnits="userSpaceOnUse">
<stop stop-color="#B39B19"/>
<stop offset="0.37" stop-color="#7C842D"/>
<stop offset="1" stop-color="#195C52"/>
</linearGradient>
<linearGradient id="paint2_linear_20_2811" x1="-3.89" y1="-1.08999" x2="32.15" y2="32.6" gradientUnits="userSpaceOnUse">
<stop stop-color="#B39B19"/>
<stop offset="0.37" stop-color="#7C842D"/>
<stop offset="1" stop-color="#195C52"/>
</linearGradient>
<linearGradient id="paint3_linear_20_2811" x1="5.38318" y1="-24.9494" x2="84.523" y2="47.9221" gradientUnits="userSpaceOnUse">
<stop stop-color="#B39B19"/>
<stop offset="0.37" stop-color="#7C842D"/>
<stop offset="1" stop-color="#195C52"/>
</linearGradient>
<linearGradient id="paint4_linear_20_2811" x1="-15.5902" y1="-11.4699" x2="63.5496" y2="61.4015" gradientUnits="userSpaceOnUse">
<stop stop-color="#B39B19"/>
<stop offset="0.37" stop-color="#7C842D"/>
<stop offset="1" stop-color="#195C52"/>
</linearGradient>
<linearGradient id="paint5_linear_20_2811" x1="-26.6766" y1="0.572989" x2="52.4632" y2="73.4444" gradientUnits="userSpaceOnUse">
<stop stop-color="#B39B19"/>
<stop offset="0.37" stop-color="#7C842D"/>
<stop offset="1" stop-color="#195C52"/>
</linearGradient>
<linearGradient id="paint6_linear_20_2811" x1="298.637" y1="31.9125" x2="253.61" y2="40.0389" gradientUnits="userSpaceOnUse">
<stop stop-color="#B39B19"/>
<stop offset="0.37" stop-color="#7C842D"/>
<stop offset="1" stop-color="#195C52"/>
</linearGradient>
<linearGradient id="paint7_linear_20_2811" x1="303.143" y1="41.1815" x2="263.151" y2="63.3946" gradientUnits="userSpaceOnUse">
<stop stop-color="#B39B19"/>
<stop offset="0.37" stop-color="#7C842D"/>
<stop offset="1" stop-color="#195C52"/>
</linearGradient>
<linearGradient id="paint8_linear_20_2811" x1="301.758" y1="46.7121" x2="257.162" y2="56.9748" gradientUnits="userSpaceOnUse">
<stop stop-color="#B39B19"/>
<stop offset="0.37" stop-color="#7C842D"/>
<stop offset="1" stop-color="#195C52"/>
</linearGradient>
<linearGradient id="paint9_linear_20_2811" x1="312.472" y1="26.065" x2="214.159" y2="43.0656" gradientUnits="userSpaceOnUse">
<stop stop-color="#B39B19"/>
<stop offset="0.37" stop-color="#7C842D"/>
<stop offset="1" stop-color="#195C52"/>
</linearGradient>
<linearGradient id="paint10_linear_20_2811" x1="315.941" y1="43.8375" x2="218.559" y2="65.5046" gradientUnits="userSpaceOnUse">
<stop stop-color="#B39B19"/>
<stop offset="0.37" stop-color="#7C842D"/>
<stop offset="1" stop-color="#195C52"/>
</linearGradient>
<linearGradient id="paint11_linear_20_2811" x1="318.917" y1="39.9732" x2="231.345" y2="87.7803" gradientUnits="userSpaceOnUse">
<stop stop-color="#B39B19"/>
<stop offset="0.37" stop-color="#7C842D"/>
<stop offset="1" stop-color="#195C52"/>
</linearGradient>
<linearGradient id="paint12_linear_20_2811" x1="146.64" y1="-10.89" x2="147.1" y2="86.65" gradientUnits="userSpaceOnUse">
<stop stop-color="#D1590F"/>
<stop offset="0.11" stop-color="#C14E19"/>
<stop offset="0.33" stop-color="#9A3336"/>
<stop offset="0.63" stop-color="#5B0864"/>
<stop offset="0.64" stop-color="#590766"/>
<stop offset="0.74" stop-color="#421967"/>
<stop offset="1" stop-color="#0A4A6B"/>
</linearGradient>
<radialGradient id="paint13_radial_20_2811" cx="0" cy="0" r="1" gradientUnits="userSpaceOnUse" gradientTransform="translate(167.82 1.15003) scale(566.96 566.96)">
<stop stop-color="#E06E16"/>
<stop offset="1" stop-color="#590766"/>
</radialGradient>
<clipPath id="clip0_20_2811">
<rect width="287.82" height="78.79" fill="white"/>
</clipPath>
</defs>
</svg>
